<?xml version="1.0" encoding="utf-8" standalone="no"?>
<!DOCTYPE svg PUBLIC "-//W3C//DTD SVG 1.1//EN"
  "http://www.w3.org/Graphics/SVG/1.1/DTD/svg11.dtd">
<svg xmlns:xlink="http://www.w3.org/1999/xlink" width="496.360625pt" height="352.15625pt" viewBox="0 0 496.360625 352.15625" xmlns="http://www.w3.org/2000/svg" version="1.1">
 <metadata>
  <rdf:RDF xmlns:dc="http://purl.org/dc/elements/1.1/" xmlns:cc="http://creativecommons.org/ns#" xmlns:rdf="http://www.w3.org/1999/02/22-rdf-syntax-ns#">
   <cc:Work>
    <dc:type rdf:resource="http://purl.org/dc/dcmitype/StillImage"/>
    <dc:date>2026-01-03T11:43:25.346059</dc:date>
    <dc:format>image/svg+xml</dc:format>
    <dc:creator>
     <cc:Agent>
      <dc:title>Matplotlib v3.6.3, https://matplotlib.org/</dc:title>
     </cc:Agent>
    </dc:creator>
   </cc:Work>
  </rdf:RDF>
 </metadata>
 <defs>
  <style type="text/css">*{stroke-linejoin: round; stroke-linecap: butt}</style>
 </defs>
 <g id="figure_1">
  <g id="patch_1">
   <path d="M 0 352.15625 
L 496.360625 352.15625 
L 496.360625 0 
L 0 0 
z
" style="fill: #ffffff"/>
  </g>
  <g id="axes_1">
   <g id="patch_2">
    <path d="M 46.965625 328.278125 
L 489.160625 328.278125 
L 489.160625 22.318125 
L 46.965625 22.318125 
z
" style="fill: #ffffff"/>
   </g>
   <g id="patch_3">
    <path d="M 67.065398 328.278125 
L 72.186359 328.278125 
L 72.186359 44.958476 
L 67.065398 44.958476 
z
" clip-path="url(#p444845deb4)" style="fill: #77cae0"/>
   </g>
   <g id="patch_4">
    <path d="M 101.205139 328.278125 
L 106.3261 328.278125 
L 106.3261 66.48068 
L 101.205139 66.48068 
z
" clip-path="url(#p444845deb4)" style="fill: #77cae0"/>
   </g>
   <g id="patch_5">
    <path d="M 135.34488 328.278125 
L 140.465842 328.278125 
L 140.465842 36.887649 
L 135.34488 36.887649 
z
" clip-path="url(#p444845deb4)" style="fill: #77cae0"/>
   </g>
   <g id="patch_6">
    <path d="M 169.484622 328.278125 
L 174.605583 328.278125 
L 174.605583 48.993889 
L 169.484622 48.993889 
z
" clip-path="url(#p444845deb4)" style="fill: #77cae0"/>
   </g>
   <g id="patch_7">
    <path d="M 203.624363 328.278125 
L 208.745324 328.278125 
L 208.745324 60.763845 
L 203.624363 60.763845 
z
" clip-path="url(#p444845deb4)" style="fill: #77cae0"/>
   </g>
   <g id="patch_8">
    <path d="M 237.764105 328.278125 
L 242.885066 328.278125 
L 242.885066 143.321677 
L 237.764105 143.321677 
z
" clip-path="url(#p444845deb4)" style="fill: #77cae0"/>
   </g>
   <g id="patch_9">
    <path d="M 271.903846 328.278125 
L 277.024807 328.278125 
L 277.024807 193.596203 
L 271.903846 193.596203 
z
" clip-path="url(#p444845deb4)" style="fill: #77cae0"/>
   </g>
   <g id="patch_10">
    <path d="M 306.043587 328.278125 
L 311.164548 328.278125 
L 311.164548 214.277696 
L 306.043587 214.277696 
z
" clip-path="url(#p444845deb4)" style="fill: #77cae0"/>
   </g>
   <g id="patch_11">
    <path d="M 340.183329 328.278125 
L 345.30429 328.278125 
L 345.30429 63.45412 
L 340.183329 63.45412 
z
" clip-path="url(#p444845deb4)" style="fill: #77cae0"/>
   </g>
   <g id="patch_12">
    <path d="M 374.32307 328.278125 
L 379.444031 328.278125 
L 379.444031 41.175276 
L 374.32307 41.175276 
z
" clip-path="url(#p444845deb4)" style="fill: #77cae0"/>
   </g>
   <g id="patch_13">
    <path d="M 408.462811 328.278125 
L 413.583773 328.278125 
L 413.583773 84.471899 
L 408.462811 84.471899 
z
" clip-path="url(#p444845deb4)" style="fill: #77cae0"/>
   </g>
   <g id="patch_14">
    <path d="M 442.602553 328.278125 
L 447.723514 328.278125 
L 447.723514 131.047295 
L 442.602553 131.047295 
z
" clip-path="url(#p444845deb4)" style="fill: #77cae0"/>
   </g>
   <g id="patch_15">
    <path d="M 71.332865 328.278125 
L 78.160814 328.278125 
L 78.160814 69.50724 
L 71.332865 69.50724 
z
" clip-path="url(#p444845deb4)" style="fill: #5ab1cc"/>
   </g>
   <g id="patch_16">
    <path d="M 105.472607 328.278125 
L 112.300555 328.278125 
L 112.300555 112.215366 
L 105.472607 112.215366 
z
" clip-path="url(#p444845deb4)" style="fill: #5ab1cc"/>
   </g>
   <g id="patch_17">
    <path d="M 139.612348 328.278125 
L 146.440296 328.278125 
L 146.440296 198.640469 
L 139.612348 198.640469 
z
" clip-path="url(#p444845deb4)" style="fill: #5ab1cc"/>
   </g>
   <g id="patch_18">
    <path d="M 173.752089 328.278125 
L 180.580038 328.278125 
L 180.580038 87.498459 
L 173.752089 87.498459 
z
" clip-path="url(#p444845deb4)" style="fill: #5ab1cc"/>
   </g>
   <g id="patch_19">
    <path d="M 207.891831 328.278125 
L 214.719779 328.278125 
L 214.719779 165.012024 
L 207.891831 165.012024 
z
" clip-path="url(#p444845deb4)" style="fill: #5ab1cc"/>
   </g>
   <g id="patch_20">
    <path d="M 242.031572 328.278125 
L 248.85952 328.278125 
L 248.85952 205.113945 
L 242.031572 205.113945 
z
" clip-path="url(#p444845deb4)" style="fill: #5ab1cc"/>
   </g>
   <g id="patch_21">
    <path d="M 276.171314 328.278125 
L 282.999262 328.278125 
L 282.999262 239.49903 
L 276.171314 239.49903 
z
" clip-path="url(#p444845deb4)" style="fill: #5ab1cc"/>
   </g>
   <g id="patch_22">
    <path d="M 310.311055 328.278125 
L 317.139003 328.278125 
L 317.139003 102.933915 
L 310.311055 102.933915 
z
" clip-path="url(#p444845deb4)" style="fill: #5ab1cc"/>
   </g>
   <g id="patch_23">
    <path d="M 344.450796 328.278125 
L 351.278745 328.278125 
L 351.278745 149.492497 
L 344.450796 149.492497 
z
" clip-path="url(#p444845deb4)" style="fill: #5ab1cc"/>
   </g>
   <g id="patch_24">
    <path d="M 378.590538 328.278125 
L 385.418486 328.278125 
L 385.418486 132.392433 
L 378.590538 132.392433 
z
" clip-path="url(#p444845deb4)" style="fill: #5ab1cc"/>
   </g>
   <g id="patch_25">
    <path d="M 412.730279 328.278125 
L 419.558227 328.278125 
L 419.558227 156.773055 
L 412.730279 156.773055 
z
" clip-path="url(#p444845deb4)" style="fill: #5ab1cc"/>
   </g>
   <g id="patch_26">
    <path d="M 446.87002 328.278125 
L 453.697969 328.278125 
L 453.697969 205.702443 
L 446.87002 205.702443 
z
" clip-path="url(#p444845deb4)" style="fill: #5ab1cc"/>
   </g>
   <g id="patch_27">
    <path d="M 76.453827 328.278125 
L 83.281775 328.278125 
L 83.281775 158.454478 
L 76.453827 158.454478 
z
" clip-path="url(#p444845deb4)" style="fill: #3e9888"/>
   </g>
   <g id="patch_28">
    <path d="M 110.593568 328.278125 
L 117.421516 328.278125 
L 117.421516 132.728717 
L 110.593568 132.728717 
z
" clip-path="url(#p444845deb4)" style="fill: #3e9888"/>
   </g>
   <g id="patch_29">
    <path d="M 144.733309 328.278125 
L 151.561258 328.278125 
L 151.561258 130.038442 
L 144.733309 130.038442 
z
" clip-path="url(#p444845deb4)" style="fill: #3e9888"/>
   </g>
   <g id="patch_30">
    <path d="M 178.873051 328.278125 
L 185.700999 328.278125 
L 185.700999 155.259775 
L 178.873051 155.259775 
z
" clip-path="url(#p444845deb4)" style="fill: #3e9888"/>
   </g>
   <g id="patch_31">
    <path d="M 213.012792 328.278125 
L 219.84074 328.278125 
L 219.84074 175.689056 
L 213.012792 175.689056 
z
" clip-path="url(#p444845deb4)" style="fill: #3e9888"/>
   </g>
   <g id="patch_32">
    <path d="M 247.152533 328.278125 
L 253.980482 328.278125 
L 253.980482 209.905998 
L 247.152533 209.905998 
z
" clip-path="url(#p444845deb4)" style="fill: #3e9888"/>
   </g>
   <g id="patch_33">
    <path d="M 281.292275 328.278125 
L 288.120223 328.278125 
L 288.120223 232.857412 
L 281.292275 232.857412 
z
" clip-path="url(#p444845deb4)" style="fill: #3e9888"/>
   </g>
   <g id="patch_34">
    <path d="M 315.432016 328.278125 
L 322.259964 328.278125 
L 322.259964 167.366016 
L 315.432016 167.366016 
z
" clip-path="url(#p444845deb4)" style="fill: #3e9888"/>
   </g>
   <g id="patch_35">
    <path d="M 349.571758 328.278125 
L 356.399706 328.278125 
L 356.399706 149.54294 
L 349.571758 149.54294 
z
" clip-path="url(#p444845deb4)" style="fill: #3e9888"/>
   </g>
   <g id="patch_36">
    <path d="M 383.711499 328.278125 
L 390.539447 328.278125 
L 390.539447 153.830566 
L 383.711499 153.830566 
z
" clip-path="url(#p444845deb4)" style="fill: #3e9888"/>
   </g>
   <g id="patch_37">
    <path d="M 417.85124 328.278125 
L 424.679189 328.278125 
L 424.679189 178.967829 
L 417.85124 178.967829 
z
" clip-path="url(#p444845deb4)" style="fill: #3e9888"/>
   </g>
   <g id="patch_38">
    <path d="M 451.990982 328.278125 
L 458.81893 328.278125 
L 458.81893 206.543154 
L 451.990982 206.543154 
z
" clip-path="url(#p444845deb4)" style="fill: #3e9888"/>
   </g>
   <g id="patch_39">
    <path d="M 81.574788 328.278125 
L 88.402736 328.278125 
L 88.402736 232.857412 
L 81.574788 232.857412 
z
" clip-path="url(#p444845deb4)" style="fill: #217ea3"/>
   </g>
   <g id="patch_40">
    <path d="M 115.714529 328.278125 
L 122.542477 328.278125 
L 122.542477 219.490105 
L 115.714529 219.490105 
z
" clip-path="url(#p444845deb4)" style="fill: #217ea3"/>
   </g>
   <g id="patch_41">
    <path d="M 149.854271 328.278125 
L 156.682219 328.278125 
L 156.682219 103.640112 
L 149.854271 103.640112 
z
" clip-path="url(#p444845deb4)" style="fill: #217ea3"/>
   </g>
   <g id="patch_42">
    <path d="M 183.994012 328.278125 
L 190.82196 328.278125 
L 190.82196 191.746638 
L 183.994012 191.746638 
z
" clip-path="url(#p444845deb4)" style="fill: #217ea3"/>
   </g>
   <g id="patch_43">
    <path d="M 218.133753 328.278125 
L 224.961702 328.278125 
L 224.961702 209.065287 
L 218.133753 209.065287 
z
" clip-path="url(#p444845deb4)" style="fill: #217ea3"/>
   </g>
   <g id="patch_44">
    <path d="M 252.273495 328.278125 
L 259.101443 328.278125 
L 259.101443 58.073569 
L 252.273495 58.073569 
z
" clip-path="url(#p444845deb4)" style="fill: #217ea3"/>
   </g>
   <g id="patch_45">
    <path d="M 286.413236 328.278125 
L 293.241184 328.278125 
L 293.241184 219.994532 
L 286.413236 219.994532 
z
" clip-path="url(#p444845deb4)" style="fill: #217ea3"/>
   </g>
   <g id="patch_46">
    <path d="M 320.552977 328.278125 
L 327.380926 328.278125 
L 327.380926 109.52509 
L 320.552977 109.52509 
z
" clip-path="url(#p444845deb4)" style="fill: #217ea3"/>
   </g>
   <g id="patch_47">
    <path d="M 354.692719 328.278125 
L 361.520667 328.278125 
L 361.520667 152.065073 
L 354.692719 152.065073 
z
" clip-path="url(#p444845deb4)" style="fill: #217ea3"/>
   </g>
   <g id="patch_48">
    <path d="M 388.83246 328.278125 
L 395.660408 328.278125 
L 395.660408 144.498673 
L 388.83246 144.498673 
z
" clip-path="url(#p444845deb4)" style="fill: #217ea3"/>
   </g>
   <g id="patch_49">
    <path d="M 422.972201 328.278125 
L 429.80015 328.278125 
L 429.80015 142.649108 
L 422.972201 142.649108 
z
" clip-path="url(#p444845deb4)" style="fill: #217ea3"/>
   </g>
   <g id="patch_50">
    <path d="M 457.111943 328.278125 
L 463.939891 328.278125 
L 463.939891 161.144753 
L 457.111943 161.144753 
z
" clip-path="url(#p444845deb4)" style="fill: #217ea3"/>
   </g>
   <g id="patch_51">
    <path d="M 86.695749 328.278125 
L 93.523697 328.278125 
L 93.523697 176.950122 
L 86.695749 176.950122 
z
" clip-path="url(#p444845deb4)" style="fill: #f3822a"/>
   </g>
   <g id="patch_52">
    <path d="M 120.83549 328.278125 
L 127.663439 328.278125 
L 127.663439 129.19773 
L 120.83549 129.19773 
z
" clip-path="url(#p444845deb4)" style="fill: #f3822a"/>
   </g>
   <g id="patch_53">
    <path d="M 154.975232 328.278125 
L 161.80318 328.278125 
L 161.80318 159.463331 
L 154.975232 159.463331 
z
" clip-path="url(#p444845deb4)" style="fill: #f3822a"/>
   </g>
   <g id="patch_54">
    <path d="M 189.114973 328.278125 
L 195.942921 328.278125 
L 195.942921 167.366016 
L 189.114973 167.366016 
z
" clip-path="url(#p444845deb4)" style="fill: #f3822a"/>
   </g>
   <g id="patch_55">
    <path d="M 223.254714 328.278125 
L 230.082663 328.278125 
L 230.082663 174.259847 
L 223.254714 174.259847 
z
" clip-path="url(#p444845deb4)" style="fill: #f3822a"/>
   </g>
   <g id="patch_56">
    <path d="M 257.394456 328.278125 
L 264.222404 328.278125 
L 264.222404 179.0519 
L 257.394456 179.0519 
z
" clip-path="url(#p444845deb4)" style="fill: #f3822a"/>
   </g>
   <g id="patch_57">
    <path d="M 291.534197 328.278125 
L 298.362145 328.278125 
L 298.362145 207.770592 
L 291.534197 207.770592 
z
" clip-path="url(#p444845deb4)" style="fill: #f3822a"/>
   </g>
   <g id="patch_58">
    <path d="M 325.673939 328.278125 
L 332.501887 328.278125 
L 332.501887 298.348809 
L 325.673939 298.348809 
z
" clip-path="url(#p444845deb4)" style="fill: #f3822a"/>
   </g>
   <g id="patch_59">
    <path d="M 359.81368 328.278125 
L 366.641628 328.278125 
L 366.641628 128.525162 
L 359.81368 128.525162 
z
" clip-path="url(#p444845deb4)" style="fill: #f3822a"/>
   </g>
   <g id="patch_60">
    <path d="M 393.953421 328.278125 
L 400.78137 328.278125 
L 400.78137 172.073998 
L 393.953421 172.073998 
z
" clip-path="url(#p444845deb4)" style="fill: #f3822a"/>
   </g>
   <g id="patch_61">
    <path d="M 428.093163 328.278125 
L 434.921111 328.278125 
L 434.921111 154.250922 
L 428.093163 154.250922 
z
" clip-path="url(#p444845deb4)" style="fill: #f3822a"/>
   </g>
   <g id="patch_62">
    <path d="M 462.232904 328.278125 
L 469.060852 328.278125 
L 469.060852 196.790905 
L 462.232904 196.790905 
z
" clip-path="url(#p444845deb4)" style="fill: #f3822a"/>
   </g>
   <g id="matplotlib.axis_1">
    <g id="xtick_1">
     <g id="line2d_1">
      <defs>
       <path id="m9fdbb27369" d="M 0 0 
L 0 3.5 
" style="stroke: #000000; stroke-width: 0.8"/>
      </defs>
      <g>
       <use xlink:href="#m9fdbb27369" x="69.625878" y="328.278125" style="stroke: #000000; stroke-width: 0.8"/>
      </g>
     </g>
     <g id="text_1">
      <!-- Jan -->
      <g transform="translate(61.918066 342.876562) scale(0.1 -0.1)">
       <defs>
        <path id="DejaVuSans-4a" d="M 628 4666 
L 1259 4666 
L 1259 325 
Q 1259 -519 939 -900 
Q 619 -1281 -91 -1281 
L -331 -1281 
L -331 -750 
L -134 -750 
Q 284 -750 456 -515 
Q 628 -281 628 325 
L 628 4666 
z
" transform="scale(0.015625)"/>
        <path id="DejaVuSans-61" d="M 2194 1759 
Q 1497 1759 1228 1600 
Q 959 1441 959 1056 
Q 959 750 1161 570 
Q 1363 391 1709 391 
Q 2188 391 2477 730 
Q 2766 1069 2766 1631 
L 2766 1759 
L 2194 1759 
z
M 3341 1997 
L 3341 0 
L 2766 0 
L 2766 531 
Q 2569 213 2275 61 
Q 1981 -91 1556 -91 
Q 1019 -91 701 211 
Q 384 513 384 1019 
Q 384 1609 779 1909 
Q 1175 2209 1959 2209 
L 2766 2209 
L 2766 2266 
Q 2766 2663 2505 2880 
Q 2244 3097 1772 3097 
Q 1472 3097 1187 3025 
Q 903 2953 641 2809 
L 641 3341 
Q 956 3463 1253 3523 
Q 1550 3584 1831 3584 
Q 2591 3584 2966 3190 
Q 3341 2797 3341 1997 
z
" transform="scale(0.015625)"/>
        <path id="DejaVuSans-6e" d="M 3513 2113 
L 3513 0 
L 2938 0 
L 2938 2094 
Q 2938 2591 2744 2837 
Q 2550 3084 2163 3084 
Q 1697 3084 1428 2787 
Q 1159 2491 1159 1978 
L 1159 0 
L 581 0 
L 581 3500 
L 1159 3500 
L 1159 2956 
Q 1366 3272 1645 3428 
Q 1925 3584 2291 3584 
Q 2894 3584 3203 3211 
Q 3513 2838 3513 2113 
z
" transform="scale(0.015625)"/>
       </defs>
       <use xlink:href="#DejaVuSans-4a"/>
       <use xlink:href="#DejaVuSans-61" x="29.492188"/>
       <use xlink:href="#DejaVuSans-6e" x="90.771484"/>
      </g>
     </g>
    </g>
    <g id="xtick_2">
     <g id="line2d_2">
      <g>
       <use xlink:href="#m9fdbb27369" x="103.76562" y="328.278125" style="stroke: #000000; stroke-width: 0.8"/>
      </g>
     </g>
     <g id="text_2">
      <!-- Feb -->
      <g transform="translate(94.914057 342.876562) scale(0.1 -0.1)">
       <defs>
        <path id="DejaVuSans-46" d="M 628 4666 
L 3309 4666 
L 3309 4134 
L 1259 4134 
L 1259 2759 
L 3109 2759 
L 3109 2228 
L 1259 2228 
L 1259 0 
L 628 0 
L 628 4666 
z
" transform="scale(0.015625)"/>
        <path id="DejaVuSans-65" d="M 3597 1894 
L 3597 1613 
L 953 1613 
Q 991 1019 1311 708 
Q 1631 397 2203 397 
Q 2534 397 2845 478 
Q 3156 559 3463 722 
L 3463 178 
Q 3153 47 2828 -22 
Q 2503 -91 2169 -91 
Q 1331 -91 842 396 
Q 353 884 353 1716 
Q 353 2575 817 3079 
Q 1281 3584 2069 3584 
Q 2775 3584 3186 3129 
Q 3597 2675 3597 1894 
z
M 3022 2063 
Q 3016 2534 2758 2815 
Q 2500 3097 2075 3097 
Q 1594 3097 1305 2825 
Q 1016 2553 972 2059 
L 3022 2063 
z
" transform="scale(0.015625)"/>
        <path id="DejaVuSans-62" d="M 3116 1747 
Q 3116 2381 2855 2742 
Q 2594 3103 2138 3103 
Q 1681 3103 1420 2742 
Q 1159 2381 1159 1747 
Q 1159 1113 1420 752 
Q 1681 391 2138 391 
Q 2594 391 2855 752 
Q 3116 1113 3116 1747 
z
M 1159 2969 
Q 1341 3281 1617 3432 
Q 1894 3584 2278 3584 
Q 2916 3584 3314 3078 
Q 3713 2572 3713 1747 
Q 3713 922 3314 415 
Q 2916 -91 2278 -91 
Q 1894 -91 1617 61 
Q 1341 213 1159 525 
L 1159 0 
L 581 0 
L 581 4863 
L 1159 4863 
L 1159 2969 
z
" transform="scale(0.015625)"/>
       </defs>
       <use xlink:href="#DejaVuSans-46"/>
       <use xlink:href="#DejaVuSans-65" x="52.019531"/>
       <use xlink:href="#DejaVuSans-62" x="113.542969"/>
      </g>
     </g>
    </g>
    <g id="xtick_3">
     <g id="line2d_3">
      <g>
       <use xlink:href="#m9fdbb27369" x="137.905361" y="328.278125" style="stroke: #000000; stroke-width: 0.8"/>
      </g>
     </g>
     <g id="text_3">
      <!-- Mar -->
      <g transform="translate(128.471767 342.876562) scale(0.1 -0.1)">
       <defs>
        <path id="DejaVuSans-4d" d="M 628 4666 
L 1569 4666 
L 2759 1491 
L 3956 4666 
L 4897 4666 
L 4897 0 
L 4281 0 
L 4281 4097 
L 3078 897 
L 2444 897 
L 1241 4097 
L 1241 0 
L 628 0 
L 628 4666 
z
" transform="scale(0.015625)"/>
        <path id="DejaVuSans-72" d="M 2631 2963 
Q 2534 3019 2420 3045 
Q 2306 3072 2169 3072 
Q 1681 3072 1420 2755 
Q 1159 2438 1159 1844 
L 1159 0 
L 581 0 
L 581 3500 
L 1159 3500 
L 1159 2956 
Q 1341 3275 1631 3429 
Q 1922 3584 2338 3584 
Q 2397 3584 2469 3576 
Q 2541 3569 2628 3553 
L 2631 2963 
z
" transform="scale(0.015625)"/>
       </defs>
       <use xlink:href="#DejaVuSans-4d"/>
       <use xlink:href="#DejaVuSans-61" x="86.279297"/>
       <use xlink:href="#DejaVuSans-72" x="147.558594"/>
      </g>
     </g>
    </g>
    <g id="xtick_4">
     <g id="line2d_4">
      <g>
       <use xlink:href="#m9fdbb27369" x="172.045102" y="328.278125" style="stroke: #000000; stroke-width: 0.8"/>
      </g>
     </g>
     <g id="text_4">
      <!-- Apr -->
      <g transform="translate(163.395102 342.876562) scale(0.1 -0.1)">
       <defs>
        <path id="DejaVuSans-41" d="M 2188 4044 
L 1331 1722 
L 3047 1722 
L 2188 4044 
z
M 1831 4666 
L 2547 4666 
L 4325 0 
L 3669 0 
L 3244 1197 
L 1141 1197 
L 716 0 
L 50 0 
L 1831 4666 
z
" transform="scale(0.015625)"/>
        <path id="DejaVuSans-70" d="M 1159 525 
L 1159 -1331 
L 581 -1331 
L 581 3500 
L 1159 3500 
L 1159 2969 
Q 1341 3281 1617 3432 
Q 1894 3584 2278 3584 
Q 2916 3584 3314 3078 
Q 3713 2572 3713 1747 
Q 3713 922 3314 415 
Q 2916 -91 2278 -91 
Q 1894 -91 1617 61 
Q 1341 213 1159 525 
z
M 3116 1747 
Q 3116 2381 2855 2742 
Q 2594 3103 2138 3103 
Q 1681 3103 1420 2742 
Q 1159 2381 1159 1747 
Q 1159 1113 1420 752 
Q 1681 391 2138 391 
Q 2594 391 2855 752 
Q 3116 1113 3116 1747 
z
" transform="scale(0.015625)"/>
       </defs>
       <use xlink:href="#DejaVuSans-41"/>
       <use xlink:href="#DejaVuSans-70" x="68.408203"/>
       <use xlink:href="#DejaVuSans-72" x="131.884766"/>
      </g>
     </g>
    </g>
    <g id="xtick_5">
     <g id="line2d_5">
      <g>
       <use xlink:href="#m9fdbb27369" x="206.184844" y="328.278125" style="stroke: #000000; stroke-width: 0.8"/>
      </g>
     </g>
     <g id="text_5">
      <!-- May -->
      <g transform="translate(195.847344 342.876562) scale(0.1 -0.1)">
       <defs>
        <path id="DejaVuSans-79" d="M 2059 -325 
Q 1816 -950 1584 -1140 
Q 1353 -1331 966 -1331 
L 506 -1331 
L 506 -850 
L 844 -850 
Q 1081 -850 1212 -737 
Q 1344 -625 1503 -206 
L 1606 56 
L 191 3500 
L 800 3500 
L 1894 763 
L 2988 3500 
L 3597 3500 
L 2059 -325 
z
" transform="scale(0.015625)"/>
       </defs>
       <use xlink:href="#DejaVuSans-4d"/>
       <use xlink:href="#DejaVuSans-61" x="86.279297"/>
       <use xlink:href="#DejaVuSans-79" x="147.558594"/>
      </g>
     </g>
    </g>
    <g id="xtick_6">
     <g id="line2d_6">
      <g>
       <use xlink:href="#m9fdbb27369" x="240.324585" y="328.278125" style="stroke: #000000; stroke-width: 0.8"/>
      </g>
     </g>
     <g id="text_6">
      <!-- Jun -->
      <g transform="translate(232.512085 342.876562) scale(0.1 -0.1)">
       <defs>
        <path id="DejaVuSans-75" d="M 544 1381 
L 544 3500 
L 1119 3500 
L 1119 1403 
Q 1119 906 1312 657 
Q 1506 409 1894 409 
Q 2359 409 2629 706 
Q 2900 1003 2900 1516 
L 2900 3500 
L 3475 3500 
L 3475 0 
L 2900 0 
L 2900 538 
Q 2691 219 2414 64 
Q 2138 -91 1772 -91 
Q 1169 -91 856 284 
Q 544 659 544 1381 
z
M 1991 3584 
L 1991 3584 
z
" transform="scale(0.015625)"/>
       </defs>
       <use xlink:href="#DejaVuSans-4a"/>
       <use xlink:href="#DejaVuSans-75" x="29.492188"/>
       <use xlink:href="#DejaVuSans-6e" x="92.871094"/>
      </g>
     </g>
    </g>
    <g id="xtick_7">
     <g id="line2d_7">
      <g>
       <use xlink:href="#m9fdbb27369" x="274.464327" y="328.278125" style="stroke: #000000; stroke-width: 0.8"/>
      </g>
     </g>
     <g id="text_7">
      <!-- Jul -->
      <g transform="translate(268.431514 342.876562) scale(0.1 -0.1)">
       <defs>
        <path id="DejaVuSans-6c" d="M 603 4863 
L 1178 4863 
L 1178 0 
L 603 0 
L 603 4863 
z
" transform="scale(0.015625)"/>
       </defs>
       <use xlink:href="#DejaVuSans-4a"/>
       <use xlink:href="#DejaVuSans-75" x="29.492188"/>
       <use xlink:href="#DejaVuSans-6c" x="92.871094"/>
      </g>
     </g>
    </g>
    <g id="xtick_8">
     <g id="line2d_8">
      <g>
       <use xlink:href="#m9fdbb27369" x="308.604068" y="328.278125" style="stroke: #000000; stroke-width: 0.8"/>
      </g>
     </g>
     <g id="text_8">
      <!-- Aug -->
      <g transform="translate(298.840787 342.876562) scale(0.1 -0.1)">
       <defs>
        <path id="DejaVuSans-67" d="M 2906 1791 
Q 2906 2416 2648 2759 
Q 2391 3103 1925 3103 
Q 1463 3103 1205 2759 
Q 947 2416 947 1791 
Q 947 1169 1205 825 
Q 1463 481 1925 481 
Q 2391 481 2648 825 
Q 2906 1169 2906 1791 
z
M 3481 434 
Q 3481 -459 3084 -895 
Q 2688 -1331 1869 -1331 
Q 1566 -1331 1297 -1286 
Q 1028 -1241 775 -1147 
L 775 -588 
Q 1028 -725 1275 -790 
Q 1522 -856 1778 -856 
Q 2344 -856 2625 -561 
Q 2906 -266 2906 331 
L 2906 616 
Q 2728 306 2450 153 
Q 2172 0 1784 0 
Q 1141 0 747 490 
Q 353 981 353 1791 
Q 353 2603 747 3093 
Q 1141 3584 1784 3584 
Q 2172 3584 2450 3431 
Q 2728 3278 2906 2969 
L 2906 3500 
L 3481 3500 
L 3481 434 
z
" transform="scale(0.015625)"/>
       </defs>
       <use xlink:href="#DejaVuSans-41"/>
       <use xlink:href="#DejaVuSans-75" x="68.408203"/>
       <use xlink:href="#DejaVuSans-67" x="131.787109"/>
      </g>
     </g>
    </g>
    <g id="xtick_9">
     <g id="line2d_9">
      <g>
       <use xlink:href="#m9fdbb27369" x="342.743809" y="328.278125" style="stroke: #000000; stroke-width: 0.8"/>
      </g>
     </g>
     <g id="text_9">
      <!-- Sep -->
      <g transform="translate(333.318809 342.876562) scale(0.1 -0.1)">
       <defs>
        <path id="DejaVuSans-53" d="M 3425 4513 
L 3425 3897 
Q 3066 4069 2747 4153 
Q 2428 4238 2131 4238 
Q 1616 4238 1336 4038 
Q 1056 3838 1056 3469 
Q 1056 3159 1242 3001 
Q 1428 2844 1947 2747 
L 2328 2669 
Q 3034 2534 3370 2195 
Q 3706 1856 3706 1288 
Q 3706 609 3251 259 
Q 2797 -91 1919 -91 
Q 1588 -91 1214 -16 
Q 841 59 441 206 
L 441 856 
Q 825 641 1194 531 
Q 1563 422 1919 422 
Q 2459 422 2753 634 
Q 3047 847 3047 1241 
Q 3047 1584 2836 1778 
Q 2625 1972 2144 2069 
L 1759 2144 
Q 1053 2284 737 2584 
Q 422 2884 422 3419 
Q 422 4038 858 4394 
Q 1294 4750 2059 4750 
Q 2388 4750 2728 4690 
Q 3069 4631 3425 4513 
z
" transform="scale(0.015625)"/>
       </defs>
       <use xlink:href="#DejaVuSans-53"/>
       <use xlink:href="#DejaVuSans-65" x="63.476562"/>
       <use xlink:href="#DejaVuSans-70" x="125"/>
      </g>
     </g>
    </g>
    <g id="xtick_10">
     <g id="line2d_10">
      <g>
       <use xlink:href="#m9fdbb27369" x="376.883551" y="328.278125" style="stroke: #000000; stroke-width: 0.8"/>
      </g>
     </g>
     <g id="text_10">
      <!-- Oct -->
      <g transform="translate(368.238238 342.876562) scale(0.1 -0.1)">
       <defs>
        <path id="DejaVuSans-4f" d="M 2522 4238 
Q 1834 4238 1429 3725 
Q 1025 3213 1025 2328 
Q 1025 1447 1429 934 
Q 1834 422 2522 422 
Q 3209 422 3611 934 
Q 4013 1447 4013 2328 
Q 4013 3213 3611 3725 
Q 3209 4238 2522 4238 
z
M 2522 4750 
Q 3503 4750 4090 4092 
Q 4678 3434 4678 2328 
Q 4678 1225 4090 567 
Q 3503 -91 2522 -91 
Q 1538 -91 948 565 
Q 359 1222 359 2328 
Q 359 3434 948 4092 
Q 1538 4750 2522 4750 
z
" transform="scale(0.015625)"/>
        <path id="DejaVuSans-63" d="M 3122 3366 
L 3122 2828 
Q 2878 2963 2633 3030 
Q 2388 3097 2138 3097 
Q 1578 3097 1268 2742 
Q 959 2388 959 1747 
Q 959 1106 1268 751 
Q 1578 397 2138 397 
Q 2388 397 2633 464 
Q 2878 531 3122 666 
L 3122 134 
Q 2881 22 2623 -34 
Q 2366 -91 2075 -91 
Q 1284 -91 818 406 
Q 353 903 353 1747 
Q 353 2603 823 3093 
Q 1294 3584 2113 3584 
Q 2378 3584 2631 3529 
Q 2884 3475 3122 3366 
z
" transform="scale(0.015625)"/>
        <path id="DejaVuSans-74" d="M 1172 4494 
L 1172 3500 
L 2356 3500 
L 2356 3053 
L 1172 3053 
L 1172 1153 
Q 1172 725 1289 603 
Q 1406 481 1766 481 
L 2356 481 
L 2356 0 
L 1766 0 
Q 1100 0 847 248 
Q 594 497 594 1153 
L 594 3053 
L 172 3053 
L 172 3500 
L 594 3500 
L 594 4494 
L 1172 4494 
z
" transform="scale(0.015625)"/>
       </defs>
       <use xlink:href="#DejaVuSans-4f"/>
       <use xlink:href="#DejaVuSans-63" x="78.710938"/>
       <use xlink:href="#DejaVuSans-74" x="133.691406"/>
      </g>
     </g>
    </g>
    <g id="xtick_11">
     <g id="line2d_11">
      <g>
       <use xlink:href="#m9fdbb27369" x="411.023292" y="328.278125" style="stroke: #000000; stroke-width: 0.8"/>
      </g>
     </g>
     <g id="text_11">
      <!-- Nov -->
      <g transform="translate(401.263917 342.876562) scale(0.1 -0.1)">
       <defs>
        <path id="DejaVuSans-4e" d="M 628 4666 
L 1478 4666 
L 3547 763 
L 3547 4666 
L 4159 4666 
L 4159 0 
L 3309 0 
L 1241 3903 
L 1241 0 
L 628 0 
L 628 4666 
z
" transform="scale(0.015625)"/>
        <path id="DejaVuSans-6f" d="M 1959 3097 
Q 1497 3097 1228 2736 
Q 959 2375 959 1747 
Q 959 1119 1226 758 
Q 1494 397 1959 397 
Q 2419 397 2687 759 
Q 2956 1122 2956 1747 
Q 2956 2369 2687 2733 
Q 2419 3097 1959 3097 
z
M 1959 3584 
Q 2709 3584 3137 3096 
Q 3566 2609 3566 1747 
Q 3566 888 3137 398 
Q 2709 -91 1959 -91 
Q 1206 -91 779 398 
Q 353 888 353 1747 
Q 353 2609 779 3096 
Q 1206 3584 1959 3584 
z
" transform="scale(0.015625)"/>
        <path id="DejaVuSans-76" d="M 191 3500 
L 800 3500 
L 1894 563 
L 2988 3500 
L 3597 3500 
L 2284 0 
L 1503 0 
L 191 3500 
z
" transform="scale(0.015625)"/>
       </defs>
       <use xlink:href="#DejaVuSans-4e"/>
       <use xlink:href="#DejaVuSans-6f" x="74.804688"/>
       <use xlink:href="#DejaVuSans-76" x="135.986328"/>
      </g>
     </g>
    </g>
    <g id="xtick_12">
     <g id="line2d_12">
      <g>
       <use xlink:href="#m9fdbb27369" x="445.163033" y="328.278125" style="stroke: #000000; stroke-width: 0.8"/>
      </g>
     </g>
     <g id="text_12">
      <!-- Dec -->
      <g transform="translate(435.487252 342.876562) scale(0.1 -0.1)">
       <defs>
        <path id="DejaVuSans-44" d="M 1259 4147 
L 1259 519 
L 2022 519 
Q 2988 519 3436 956 
Q 3884 1394 3884 2338 
Q 3884 3275 3436 3711 
Q 2988 4147 2022 4147 
L 1259 4147 
z
M 628 4666 
L 1925 4666 
Q 3281 4666 3915 4102 
Q 4550 3538 4550 2338 
Q 4550 1131 3912 565 
Q 3275 0 1925 0 
L 628 0 
L 628 4666 
z
" transform="scale(0.015625)"/>
       </defs>
       <use xlink:href="#DejaVuSans-44"/>
       <use xlink:href="#DejaVuSans-65" x="77.001953"/>
       <use xlink:href="#DejaVuSans-63" x="138.525391"/>
      </g>
     </g>
    </g>
   </g>
   <g id="matplotlib.axis_2">
    <g id="ytick_1">
     <g id="line2d_13">
      <defs>
       <path id="m21edf34c3e" d="M 0 0 
L -3.5 0 
" style="stroke: #000000; stroke-width: 0.8"/>
      </defs>
      <g>
       <use xlink:href="#m21edf34c3e" x="46.965625" y="328.278125" style="stroke: #000000; stroke-width: 0.8"/>
      </g>
     </g>
     <g id="text_13">
      <!-- 0 -->
      <g transform="translate(33.603125 332.077344) scale(0.1 -0.1)">
       <defs>
        <path id="DejaVuSans-30" d="M 2034 4250 
Q 1547 4250 1301 3770 
Q 1056 3291 1056 2328 
Q 1056 1369 1301 889 
Q 1547 409 2034 409 
Q 2525 409 2770 889 
Q 3016 1369 3016 2328 
Q 3016 3291 2770 3770 
Q 2525 4250 2034 4250 
z
M 2034 4750 
Q 2819 4750 3233 4129 
Q 3647 3509 3647 2328 
Q 3647 1150 3233 529 
Q 2819 -91 2034 -91 
Q 1250 -91 836 529 
Q 422 1150 422 2328 
Q 422 3509 836 4129 
Q 1250 4750 2034 4750 
z
" transform="scale(0.015625)"/>
       </defs>
       <use xlink:href="#DejaVuSans-30"/>
      </g>
     </g>
    </g>
    <g id="ytick_2">
     <g id="line2d_14">
      <g>
       <use xlink:href="#m21edf34c3e" x="46.965625" y="286.242569" style="stroke: #000000; stroke-width: 0.8"/>
      </g>
     </g>
     <g id="text_14">
      <!-- 25 -->
      <g transform="translate(27.240625 290.041787) scale(0.1 -0.1)">
       <defs>
        <path id="DejaVuSans-32" d="M 1228 531 
L 3431 531 
L 3431 0 
L 469 0 
L 469 531 
Q 828 903 1448 1529 
Q 2069 2156 2228 2338 
Q 2531 2678 2651 2914 
Q 2772 3150 2772 3378 
Q 2772 3750 2511 3984 
Q 2250 4219 1831 4219 
Q 1534 4219 1204 4116 
Q 875 4013 500 3803 
L 500 4441 
Q 881 4594 1212 4672 
Q 1544 4750 1819 4750 
Q 2544 4750 2975 4387 
Q 3406 4025 3406 3419 
Q 3406 3131 3298 2873 
Q 3191 2616 2906 2266 
Q 2828 2175 2409 1742 
Q 1991 1309 1228 531 
z
" transform="scale(0.015625)"/>
        <path id="DejaVuSans-35" d="M 691 4666 
L 3169 4666 
L 3169 4134 
L 1269 4134 
L 1269 2991 
Q 1406 3038 1543 3061 
Q 1681 3084 1819 3084 
Q 2600 3084 3056 2656 
Q 3513 2228 3513 1497 
Q 3513 744 3044 326 
Q 2575 -91 1722 -91 
Q 1428 -91 1123 -41 
Q 819 9 494 109 
L 494 744 
Q 775 591 1075 516 
Q 1375 441 1709 441 
Q 2250 441 2565 725 
Q 2881 1009 2881 1497 
Q 2881 1984 2565 2268 
Q 2250 2553 1709 2553 
Q 1456 2553 1204 2497 
Q 953 2441 691 2322 
L 691 4666 
z
" transform="scale(0.015625)"/>
       </defs>
       <use xlink:href="#DejaVuSans-32"/>
       <use xlink:href="#DejaVuSans-35" x="63.623047"/>
      </g>
     </g>
    </g>
    <g id="ytick_3">
     <g id="line2d_15">
      <g>
       <use xlink:href="#m21edf34c3e" x="46.965625" y="244.207012" style="stroke: #000000; stroke-width: 0.8"/>
      </g>
     </g>
     <g id="text_15">
      <!-- 50 -->
      <g transform="translate(27.240625 248.006231) scale(0.1 -0.1)">
       <use xlink:href="#DejaVuSans-35"/>
       <use xlink:href="#DejaVuSans-30" x="63.623047"/>
      </g>
     </g>
    </g>
    <g id="ytick_4">
     <g id="line2d_16">
      <g>
       <use xlink:href="#m21edf34c3e" x="46.965625" y="202.171456" style="stroke: #000000; stroke-width: 0.8"/>
      </g>
     </g>
     <g id="text_16">
      <!-- 75 -->
      <g transform="translate(27.240625 205.970675) scale(0.1 -0.1)">
       <defs>
        <path id="DejaVuSans-37" d="M 525 4666 
L 3525 4666 
L 3525 4397 
L 1831 0 
L 1172 0 
L 2766 4134 
L 525 4134 
L 525 4666 
z
" transform="scale(0.015625)"/>
       </defs>
       <use xlink:href="#DejaVuSans-37"/>
       <use xlink:href="#DejaVuSans-35" x="63.623047"/>
      </g>
     </g>
    </g>
    <g id="ytick_5">
     <g id="line2d_17">
      <g>
       <use xlink:href="#m21edf34c3e" x="46.965625" y="160.1359" style="stroke: #000000; stroke-width: 0.8"/>
      </g>
     </g>
     <g id="text_17">
      <!-- 100 -->
      <g transform="translate(20.878125 163.935119) scale(0.1 -0.1)">
       <defs>
        <path id="DejaVuSans-31" d="M 794 531 
L 1825 531 
L 1825 4091 
L 703 3866 
L 703 4441 
L 1819 4666 
L 2450 4666 
L 2450 531 
L 3481 531 
L 3481 0 
L 794 0 
L 794 531 
z
" transform="scale(0.015625)"/>
       </defs>
       <use xlink:href="#DejaVuSans-31"/>
       <use xlink:href="#DejaVuSans-30" x="63.623047"/>
       <use xlink:href="#DejaVuSans-30" x="127.246094"/>
      </g>
     </g>
    </g>
    <g id="ytick_6">
     <g id="line2d_18">
      <g>
       <use xlink:href="#m21edf34c3e" x="46.965625" y="118.100344" style="stroke: #000000; stroke-width: 0.8"/>
      </g>
     </g>
     <g id="text_18">
      <!-- 125 -->
      <g transform="translate(20.878125 121.899562) scale(0.1 -0.1)">
       <use xlink:href="#DejaVuSans-31"/>
       <use xlink:href="#DejaVuSans-32" x="63.623047"/>
       <use xlink:href="#DejaVuSans-35" x="127.246094"/>
      </g>
     </g>
    </g>
    <g id="ytick_7">
     <g id="line2d_19">
      <g>
       <use xlink:href="#m21edf34c3e" x="46.965625" y="76.064787" style="stroke: #000000; stroke-width: 0.8"/>
      </g>
     </g>
     <g id="text_19">
      <!-- 150 -->
      <g transform="translate(20.878125 79.864006) scale(0.1 -0.1)">
       <use xlink:href="#DejaVuSans-31"/>
       <use xlink:href="#DejaVuSans-35" x="63.623047"/>
       <use xlink:href="#DejaVuSans-30" x="127.246094"/>
      </g>
     </g>
    </g>
    <g id="ytick_8">
     <g id="line2d_20">
      <g>
       <use xlink:href="#m21edf34c3e" x="46.965625" y="34.029231" style="stroke: #000000; stroke-width: 0.8"/>
      </g>
     </g>
     <g id="text_20">
      <!-- 175 -->
      <g transform="translate(20.878125 37.82845) scale(0.1 -0.1)">
       <use xlink:href="#DejaVuSans-31"/>
       <use xlink:href="#DejaVuSans-37" x="63.623047"/>
       <use xlink:href="#DejaVuSans-35" x="127.246094"/>
      </g>
     </g>
    </g>
    <g id="text_21">
     <!-- Hours -->
     <g transform="translate(14.798437 189.946562) rotate(-90) scale(0.1 -0.1)">
      <defs>
       <path id="DejaVuSans-48" d="M 628 4666 
L 1259 4666 
L 1259 2753 
L 3553 2753 
L 3553 4666 
L 4184 4666 
L 4184 0 
L 3553 0 
L 3553 2222 
L 1259 2222 
L 1259 0 
L 628 0 
L 628 4666 
z
" transform="scale(0.015625)"/>
       <path id="DejaVuSans-73" d="M 2834 3397 
L 2834 2853 
Q 2591 2978 2328 3040 
Q 2066 3103 1784 3103 
Q 1356 3103 1142 2972 
Q 928 2841 928 2578 
Q 928 2378 1081 2264 
Q 1234 2150 1697 2047 
L 1894 2003 
Q 2506 1872 2764 1633 
Q 3022 1394 3022 966 
Q 3022 478 2636 193 
Q 2250 -91 1575 -91 
Q 1294 -91 989 -36 
Q 684 19 347 128 
L 347 722 
Q 666 556 975 473 
Q 1284 391 1588 391 
Q 1994 391 2212 530 
Q 2431 669 2431 922 
Q 2431 1156 2273 1281 
Q 2116 1406 1581 1522 
L 1381 1569 
Q 847 1681 609 1914 
Q 372 2147 372 2553 
Q 372 3047 722 3315 
Q 1072 3584 1716 3584 
Q 2034 3584 2315 3537 
Q 2597 3491 2834 3397 
z
" transform="scale(0.015625)"/>
      </defs>
      <use xlink:href="#DejaVuSans-48"/>
      <use xlink:href="#DejaVuSans-6f" x="75.195312"/>
      <use xlink:href="#DejaVuSans-75" x="136.376953"/>
      <use xlink:href="#DejaVuSans-72" x="199.755859"/>
      <use xlink:href="#DejaVuSans-73" x="240.869141"/>
     </g>
    </g>
   </g>
   <g id="patch_63">
    <path d="M 46.965625 328.278125 
L 46.965625 22.318125 
" style="fill: none; stroke: #000000; stroke-width: 0.8; stroke-linejoin: miter; stroke-linecap: square"/>
   </g>
   <g id="patch_64">
    <path d="M 489.160625 328.278125 
L 489.160625 22.318125 
" style="fill: none; stroke: #000000; stroke-width: 0.8; stroke-linejoin: miter; stroke-linecap: square"/>
   </g>
   <g id="patch_65">
    <path d="M 46.965625 328.278125 
L 489.160625 328.278125 
" style="fill: none; stroke: #000000; stroke-width: 0.8; stroke-linejoin: miter; stroke-linecap: square"/>
   </g>
   <g id="patch_66">
    <path d="M 46.965625 22.318125 
L 489.160625 22.318125 
" style="fill: none; stroke: #000000; stroke-width: 0.8; stroke-linejoin: miter; stroke-linecap: square"/>
   </g>
   <g id="text_22">
    <!-- Total hours logged per Month -->
    <g transform="translate(180.325313 16.318125) scale(0.12 -0.12)">
     <defs>
      <path id="DejaVuSans-54" d="M -19 4666 
L 3928 4666 
L 3928 4134 
L 2272 4134 
L 2272 0 
L 1638 0 
L 1638 4134 
L -19 4134 
L -19 4666 
z
" transform="scale(0.015625)"/>
      <path id="DejaVuSans-20" transform="scale(0.015625)"/>
      <path id="DejaVuSans-68" d="M 3513 2113 
L 3513 0 
L 2938 0 
L 2938 2094 
Q 2938 2591 2744 2837 
Q 2550 3084 2163 3084 
Q 1697 3084 1428 2787 
Q 1159 2491 1159 1978 
L 1159 0 
L 581 0 
L 581 4863 
L 1159 4863 
L 1159 2956 
Q 1366 3272 1645 3428 
Q 1925 3584 2291 3584 
Q 2894 3584 3203 3211 
Q 3513 2838 3513 2113 
z
" transform="scale(0.015625)"/>
      <path id="DejaVuSans-64" d="M 2906 2969 
L 2906 4863 
L 3481 4863 
L 3481 0 
L 2906 0 
L 2906 525 
Q 2725 213 2448 61 
Q 2172 -91 1784 -91 
Q 1150 -91 751 415 
Q 353 922 353 1747 
Q 353 2572 751 3078 
Q 1150 3584 1784 3584 
Q 2172 3584 2448 3432 
Q 2725 3281 2906 2969 
z
M 947 1747 
Q 947 1113 1208 752 
Q 1469 391 1925 391 
Q 2381 391 2643 752 
Q 2906 1113 2906 1747 
Q 2906 2381 2643 2742 
Q 2381 3103 1925 3103 
Q 1469 3103 1208 2742 
Q 947 2381 947 1747 
z
" transform="scale(0.015625)"/>
     </defs>
     <use xlink:href="#DejaVuSans-54"/>
     <use xlink:href="#DejaVuSans-6f" x="44.083984"/>
     <use xlink:href="#DejaVuSans-74" x="105.265625"/>
     <use xlink:href="#DejaVuSans-61" x="144.474609"/>
     <use xlink:href="#DejaVuSans-6c" x="205.753906"/>
     <use xlink:href="#DejaVuSans-20" x="233.537109"/>
     <use xlink:href="#DejaVuSans-68" x="265.324219"/>
     <use xlink:href="#DejaVuSans-6f" x="328.703125"/>
     <use xlink:href="#DejaVuSans-75" x="389.884766"/>
     <use xlink:href="#DejaVuSans-72" x="453.263672"/>
     <use xlink:href="#DejaVuSans-73" x="494.376953"/>
     <use xlink:href="#DejaVuSans-20" x="546.476562"/>
     <use xlink:href="#DejaVuSans-6c" x="578.263672"/>
     <use xlink:href="#DejaVuSans-6f" x="606.046875"/>
     <use xlink:href="#DejaVuSans-67" x="667.228516"/>
     <use xlink:href="#DejaVuSans-67" x="730.705078"/>
     <use xlink:href="#DejaVuSans-65" x="794.181641"/>
     <use xlink:href="#DejaVuSans-64" x="855.705078"/>
     <use xlink:href="#DejaVuSans-20" x="919.181641"/>
     <use xlink:href="#DejaVuSans-70" x="950.96875"/>
     <use xlink:href="#DejaVuSans-65" x="1014.445312"/>
     <use xlink:href="#DejaVuSans-72" x="1075.96875"/>
     <use xlink:href="#DejaVuSans-20" x="1117.082031"/>
     <use xlink:href="#DejaVuSans-4d" x="1148.869141"/>
     <use xlink:href="#DejaVuSans-6f" x="1235.148438"/>
     <use xlink:href="#DejaVuSans-6e" x="1296.330078"/>
     <use xlink:href="#DejaVuSans-74" x="1359.708984"/>
     <use xlink:href="#DejaVuSans-68" x="1398.917969"/>
    </g>
   </g>
   <g id="legend_1">
    <g id="patch_67">
     <path d="M 424.710625 103.70875 
L 482.160625 103.70875 
Q 484.160625 103.70875 484.160625 101.70875 
L 484.160625 29.318125 
Q 484.160625 27.318125 482.160625 27.318125 
L 424.710625 27.318125 
Q 422.710625 27.318125 422.710625 29.318125 
L 422.710625 101.70875 
Q 422.710625 103.70875 424.710625 103.70875 
z
" style="fill: #ffffff; opacity: 0.8; stroke: #cccccc; stroke-linejoin: miter"/>
    </g>
    <g id="patch_68">
     <path d="M 426.710625 38.916562 
L 446.710625 38.916562 
L 446.710625 31.916562 
L 426.710625 31.916562 
z
" style="fill: #77cae0"/>
    </g>
    <g id="text_23">
     <!-- 2021 -->
     <g transform="translate(454.710625 38.916562) scale(0.1 -0.1)">
      <use xlink:href="#DejaVuSans-32"/>
      <use xlink:href="#DejaVuSans-30" x="63.623047"/>
      <use xlink:href="#DejaVuSans-32" x="127.246094"/>
      <use xlink:href="#DejaVuSans-31" x="190.869141"/>
     </g>
    </g>
    <g id="patch_69">
     <path d="M 426.710625 53.594687 
L 446.710625 53.594687 
L 446.710625 46.594687 
L 426.710625 46.594687 
z
" style="fill: #5ab1cc"/>
    </g>
    <g id="text_24">
     <!-- 2022 -->
     <g transform="translate(454.710625 53.594687) scale(0.1 -0.1)">
      <use xlink:href="#DejaVuSans-32"/>
      <use xlink:href="#DejaVuSans-30" x="63.623047"/>
      <use xlink:href="#DejaVuSans-32" x="127.246094"/>
      <use xlink:href="#DejaVuSans-32" x="190.869141"/>
     </g>
    </g>
    <g id="patch_70">
     <path d="M 426.710625 68.272812 
L 446.710625 68.272812 
L 446.710625 61.272812 
L 426.710625 61.272812 
z
" style="fill: #3e9888"/>
    </g>
    <g id="text_25">
     <!-- 2023 -->
     <g transform="translate(454.710625 68.272812) scale(0.1 -0.1)">
      <defs>
       <path id="DejaVuSans-33" d="M 2597 2516 
Q 3050 2419 3304 2112 
Q 3559 1806 3559 1356 
Q 3559 666 3084 287 
Q 2609 -91 1734 -91 
Q 1441 -91 1130 -33 
Q 819 25 488 141 
L 488 750 
Q 750 597 1062 519 
Q 1375 441 1716 441 
Q 2309 441 2620 675 
Q 2931 909 2931 1356 
Q 2931 1769 2642 2001 
Q 2353 2234 1838 2234 
L 1294 2234 
L 1294 2753 
L 1863 2753 
Q 2328 2753 2575 2939 
Q 2822 3125 2822 3475 
Q 2822 3834 2567 4026 
Q 2313 4219 1838 4219 
Q 1578 4219 1281 4162 
Q 984 4106 628 3988 
L 628 4550 
Q 988 4650 1302 4700 
Q 1616 4750 1894 4750 
Q 2613 4750 3031 4423 
Q 3450 4097 3450 3541 
Q 3450 3153 3228 2886 
Q 3006 2619 2597 2516 
z
" transform="scale(0.015625)"/>
      </defs>
      <use xlink:href="#DejaVuSans-32"/>
      <use xlink:href="#DejaVuSans-30" x="63.623047"/>
      <use xlink:href="#DejaVuSans-32" x="127.246094"/>
      <use xlink:href="#DejaVuSans-33" x="190.869141"/>
     </g>
    </g>
    <g id="patch_71">
     <path d="M 426.710625 82.950937 
L 446.710625 82.950937 
L 446.710625 75.950937 
L 426.710625 75.950937 
z
" style="fill: #217ea3"/>
    </g>
    <g id="text_26">
     <!-- 2024 -->
     <g transform="translate(454.710625 82.950937) scale(0.1 -0.1)">
      <defs>
       <path id="DejaVuSans-34" d="M 2419 4116 
L 825 1625 
L 2419 1625 
L 2419 4116 
z
M 2253 4666 
L 3047 4666 
L 3047 1625 
L 3713 1625 
L 3713 1100 
L 3047 1100 
L 3047 0 
L 2419 0 
L 2419 1100 
L 313 1100 
L 313 1709 
L 2253 4666 
z
" transform="scale(0.015625)"/>
      </defs>
      <use xlink:href="#DejaVuSans-32"/>
      <use xlink:href="#DejaVuSans-30" x="63.623047"/>
      <use xlink:href="#DejaVuSans-32" x="127.246094"/>
      <use xlink:href="#DejaVuSans-34" x="190.869141"/>
     </g>
    </g>
    <g id="patch_72">
     <path d="M 426.710625 97.629062 
L 446.710625 97.629062 
L 446.710625 90.629062 
L 426.710625 90.629062 
z
" style="fill: #f3822a"/>
    </g>
    <g id="text_27">
     <!-- 2025 -->
     <g transform="translate(454.710625 97.629062) scale(0.1 -0.1)">
      <use xlink:href="#DejaVuSans-32"/>
      <use xlink:href="#DejaVuSans-30" x="63.623047"/>
      <use xlink:href="#DejaVuSans-32" x="127.246094"/>
      <use xlink:href="#DejaVuSans-35" x="190.869141"/>
     </g>
    </g>
   </g>
  </g>
 </g>
 <defs>
  <clipPath id="p444845deb4">
   <rect x="46.965625" y="22.318125" width="442.195" height="305.96"/>
  </clipPath>
 </defs>
</svg>
