<svg height="351.43625pt" stroke-linejoin="round" viewBox="0 0 496.825937 351.43625" width="496.825937pt" xmlns="http://www.w3.org/2000/svg" xmlns:xlink="http://www.w3.org/1999/xlink"><defs stroke-linejoin="round"><clipPath id="a" stroke-linejoin="round"><path d="m49.173438 22.318125h189.85784v130.64h-189.85784z"/></clipPath><clipPath id="b" stroke-linejoin="round"><path d="m293.405598 22.318125h189.85784v130.64h-189.85784z"/></clipPath><clipPath id="c" stroke-linejoin="round"><path d="m49.173438 196.918125h189.85784v130.64h-189.85784z"/></clipPath><clipPath id="d" stroke-linejoin="round"><path d="m293.405598 196.918125h189.85784v130.64h-189.85784z"/></clipPath><path id="e" d="m0 0v3.5" stroke="#000" stroke-linejoin="round" stroke-width=".8"/><path id="f" d="m691 4666h2478v-532h-1900v-1143q137 47 274 70 138 23 276 23 781 0 1237-428 457-428 457-1159 0-753-469-1171-469-417-1322-417-294 0-599 50-304 50-629 150v635q281-153 581-228 300-75 634-75 541 0 856 284 316 284 316 772 0 487-316 771-315 285-856 285-253 0-505-56-251-56-513-175z" stroke-linejoin="round" transform="scale(.015625)"/><path id="g" d="m2034 4250q-487 0-733-480-245-479-245-1442 0-959 245-1439 246-480 733-480 491 0 736 480 246 480 246 1439 0 963-246 1442-245 480-736 480zm0 500q785 0 1199-621 414-620 414-1801 0-1178-414-1799-414-620-1199-620-784 0-1198 620-414 621-414 1799 0 1181 414 1801 414 621 1198 621z" stroke-linejoin="round" transform="scale(.015625)"/><path id="h" d="m794 531h1031v3560l-1122-225v575l1116 225h631v-4135h1031v-531h-2687z" stroke-linejoin="round" transform="scale(.015625)"/><path id="i" d="m581 4863h578v-2872l1716 1509h734l-1856-1637 1935-1863h-750l-1779 1709v-1709h-578z" stroke-linejoin="round" transform="scale(.015625)"/><path id="j" d="m684 794h660v-794h-660z" stroke-linejoin="round" transform="scale(.015625)"/><path id="k" d="m1228 531h2203v-531h-2962v531q359 372 979 998 621 627 780 809 303 340 423 576 121 236 121 464 0 372-261 606-261 235-680 235-297 0-627-103-329-103-704-313v638q381 153 712 231 332 78 607 78 725 0 1156-363 431-362 431-968 0-288-108-546-107-257-392-607-78-91-497-524-418-433-1181-1211z" stroke-linejoin="round" transform="scale(.015625)"/><path id="l" d="m0 0h-3.5" stroke="#000" stroke-linejoin="round" stroke-width=".8"/><path id="m" d="m3122 3366v-538q-244 135-489 202-245 67-495 67-560 0-870-355-309-354-309-995 0-641 309-996 310-354 870-354 250 0 495 67 245 67 489 202v-532q-241-112-499-168-257-57-548-57-791 0-1257 497-465 497-465 1341 0 856 470 1346 471 491 1290 491 265 0 518-55 253-54 491-163z" stroke-linejoin="round" transform="scale(.015625)"/><path id="n" d="m2194 1759q-697 0-966-159-269-159-269-544 0-306 202-486 202-179 548-179 479 0 768 339 289 339 289 901v128zm1147 238v-1997h-575v531q-197-318-491-470-294-152-719-152-537 0-855 302-317 302-317 808 0 590 395 890 396 300 1180 300h807v57q0 397-261 614-261 217-733 217-300 0-585-72-284-72-546-216v532q315 122 612 182 297 61 578 61 760 0 1135-394 375-393 375-1193z" stroke-linejoin="round" transform="scale(.015625)"/><path id="o" d="m2631 2963q-97 56-211 82-114 27-251 27-488 0-749-317-261-317-261-911v-1844h-578v3500h578v-544q182 319 472 473 291 155 707 155 59 0 131-8 72-7 159-23z" stroke-linejoin="round" transform="scale(.015625)"/><path id="p" d="m3116 1747q0 634-261 995-261 361-717 361-457 0-718-361-261-361-261-995 0-634 261-995 261-361 718-361 456 0 717 361 261 361 261 995zm-1957 1222q182 312 458 463 277 152 661 152 638 0 1036-506 399-506 399-1331 0-825-399-1332-398-506-1036-506-384 0-661 152-276 152-458 464v-525h-578v4863h578z" stroke-linejoin="round" transform="scale(.015625)"/><path id="q" d="m603 3500h575v-3500h-575zm0 1363h575v-729h-575z" stroke-linejoin="round" transform="scale(.015625)"/><path id="r" d="m2059-325q-243-625-475-815-231-191-618-191h-460v481h338q237 0 368 113 132 112 291 531l103 262-1415 3444h609l1094-2737 1094 2737h609z" stroke-linejoin="round" transform="scale(.015625)"/><path id="s" d="m603 4863h575v-4863h-575z" stroke-linejoin="round" transform="scale(.015625)"/><path id="t" d="m3597 1894v-281h-2644q38-594 358-905 320-311 892-311 331 0 642 81 311 81 618 244v-544q-310-131-635-200-325-69-659-69-838 0-1327 487-489 488-489 1320 0 859 464 1363 464 505 1252 505 706 0 1117-455 411-454 411-1235zm-575 169q-6 471-264 752-258 282-683 282-481 0-770-272-289-272-333-766z" stroke-linejoin="round" transform="scale(.015625)"/><path id="u" d="m1172 4494v-994h1184v-447h-1184v-1900q0-428 117-550 117-122 477-122h590v-481h-590q-666 0-919 248-253 249-253 905v1900h-422v447h422v994z" stroke-linejoin="round" transform="scale(.015625)"/><path id="v" d="m3513 3500-1266-1703 1331-1797h-678l-1019 1375-1018-1375h-679l1360 1831-1244 1669h678l928-1247 928 1247z" stroke-linejoin="round" transform="scale(.015625)"/><path id="w" d="m544 1381v2119h575v-2097q0-497 193-746 194-248 582-248 465 0 735 297 271 297 271 810v1984h575v-3500h-575v538q-209-319-486-474-276-155-642-155-603 0-916 375-312 375-312 1097z" stroke-linejoin="round" transform="scale(.015625)"/><path id="x" d="m2834 3397v-544q-243 125-506 187-262 63-544 63-428 0-642-131-214-131-214-394 0-200 153-314 153-114 616-217l197-44q612-131 870-370 258-239 258-667 0-488-386-773-386-284-1061-284-281 0-586 55-305 55-642 164v594q319-166 628-249 309-82 613-82 406 0 624 139 219 139 219 392 0 234-158 359-157 125-692 241l-200 47q-534 112-772 345-237 233-237 639 0 494 350 762 350 269 994 269 318 0 599-47 282-46 519-140z" stroke-linejoin="round" transform="scale(.015625)"/><path id="y" d="m-19 4666h3947v-532h-1656v-4134h-634v4134h-1657z" stroke-linejoin="round" transform="scale(.015625)"/><path id="z" d="m1959 3097q-462 0-731-361-269-361-269-989 0-628 267-989 268-361 733-361 460 0 728 362 269 363 269 988 0 622-269 986-268 364-728 364zm0 487q750 0 1178-488 429-487 429-1349 0-859-429-1349-428-489-1178-489-753 0-1180 489-426 490-426 1349 0 862 426 1349 427 488 1180 488z" stroke-linejoin="round" transform="scale(.015625)"/><path id="A" d="m2906 2969v1894h575v-4863h-575v525q-181-312-458-464-276-152-664-152-634 0-1033 506-398 507-398 1332 0 825 398 1331 399 506 1033 506 388 0 664-152 277-151 458-463zm-1959-1222q0-634 261-995 261-361 717-361 456 0 718 361 263 361 263 995 0 634-263 995-262 361-718 361-456 0-717-361-261-361-261-995z" stroke-linejoin="round" transform="scale(.015625)"/><path id="B" d="m3513 2113v-2113h-575v2094q0 497-194 743-194 247-581 247-466 0-735-297-269-296-269-809v-1978h-578v3500h578v-544q207 316 486 472 280 156 646 156 603 0 912-373 310-373 310-1098z" stroke-linejoin="round" transform="scale(.015625)"/><path id="C" d="m1984 4856q-418-718-622-1422-203-703-203-1425 0-721 205-1429 205-708 620-1424h-500q-468 735-701 1444-233 709-233 1409 0 697 231 1403 232 707 703 1444z" stroke-linejoin="round" transform="scale(.015625)"/><path id="D" d="m3328 2828q216 388 516 572 300 184 706 184 547 0 844-383 297-382 297-1088v-2113h-578v2094q0 503-179 746-178 244-543 244-447 0-707-297-259-296-259-809v-1978h-578v2094q0 506-178 748-178 242-550 242-441 0-701-298-259-298-259-808v-1978h-578v3500h578v-544q197 322 472 475 275 153 653 153 382 0 649-194 267-193 395-562z" stroke-linejoin="round" transform="scale(.015625)"/><path id="E" d="m513 4856h500q468-737 701-1444 233-706 233-1403 0-700-233-1409-233-709-701-1444h-500q415 716 620 1424 205 708 205 1429 0 722-205 1425-205 704-620 1422z" stroke-linejoin="round" transform="scale(.015625)"/><path id="F" d="m2597 2516q453-97 707-404 255-306 255-756 0-690-475-1069-475-378-1350-378-293 0-604 58-311 58-642 174v609q262-153 574-231 313-78 654-78 593 0 904 234 311 234 311 681 0 413-289 645-289 233-804 233h-544v519h569q465 0 712 186 247 186 247 536 0 359-255 551-254 193-729 193-260 0-557-57-297-56-653-174v562q360 100 674 150 314 50 592 50 719 0 1137-327 419-326 419-882 0-388-222-655-222-267-631-370z" stroke-linejoin="round" transform="scale(.015625)"/><path id="G" d="m2419 4116-1594-2491h1594zm-166 550h794v-3041h666v-525h-666v-1100h-628v1100h-2106v609z" stroke-linejoin="round" transform="scale(.015625)"/><path id="H" d="m3513 2113v-2113h-575v2094q0 497-194 743-194 247-581 247-466 0-735-297-269-296-269-809v-1978h-578v4863h578v-1907q207 316 486 472 280 156 646 156 603 0 912-373 310-373 310-1098z" stroke-linejoin="round" transform="scale(.015625)"/><path id="I" d="m628 4666h941l1190-3175 1197 3175h941v-4666h-616v4097l-1203-3200h-634l-1203 3200v-4097h-613z" stroke-linejoin="round" transform="scale(.015625)"/><path id="J" d="m1159 525v-1856h-578v4831h578v-531q182 312 458 463 277 152 661 152 638 0 1036-506 399-506 399-1331 0-825-399-1332-398-506-1036-506-384 0-661 152-276 152-458 464zm1957 1222q0 634-261 995-261 361-717 361-457 0-718-361-261-361-261-995 0-634 261-995 261-361 718-361 456 0 717 361 261 361 261 995z" stroke-linejoin="round" transform="scale(.015625)"/></defs><g stroke-linejoin="round"><path d="m0 351.43625h496.825937v-351.43625h-496.825937z" fill="#fff"/><g><g stroke-linejoin="round"><path d="m49.173438 152.958125h189.857839v-130.64h-189.857839z" fill="#fff"/><path clip-path="url(#a)" d="m49.173438 144.793125h180.81699v-16.33h-180.81699z" fill="#1f77b4"/><path clip-path="url(#a)" d="m49.173438 112.133125h3.715082v-16.33h-3.715082z" fill="#1f77b4"/><path clip-path="url(#a)" d="m49.173438 79.473125h1.587616v-16.33h-1.587616z" fill="#1f77b4"/><path clip-path="url(#a)" d="m49.173438 46.813125h1.558961v-16.33h-1.558961z" fill="#1f77b4"/><g><g><use stroke="#000" stroke-width=".8" x="81.959171" xlink:href="#e" y="152.958125"/><g transform="matrix(.1 0 0 -.1 72.415421 167.556563)"><use xlink:href="#f"/><use x="63.623047" xlink:href="#g"/><use x="127.246094" xlink:href="#g"/></g></g><g><use stroke="#000" stroke-width=".8" x="114.744904" xlink:href="#e" y="152.958125"/><g transform="matrix(.1 0 0 -.1 108.668341 167.556563)"><use xlink:href="#h"/><use x="63.623047" xlink:href="#i"/></g></g><g><use stroke="#000" stroke-width=".8" x="147.530637" xlink:href="#e" y="152.958125"/><g transform="matrix(.1 0 0 -.1 136.683762 167.556563)"><use xlink:href="#h"/><use x="63.623047" xlink:href="#j"/><use x="95.410156" xlink:href="#f"/><use x="159.033203" xlink:href="#i"/></g></g><g><use stroke="#000" stroke-width=".8" x="180.31637" xlink:href="#e" y="152.958125"/><g transform="matrix(.1 0 0 -.1 174.239807 167.556563)"><use xlink:href="#k"/><use x="63.623047" xlink:href="#i"/></g></g><g><use stroke="#000" stroke-width=".8" x="213.102103" xlink:href="#e" y="152.958125"/><g transform="matrix(.1 0 0 -.1 202.255228 167.556563)"><use xlink:href="#k"/><use x="63.623047" xlink:href="#j"/><use x="95.410156" xlink:href="#f"/><use x="159.033203" xlink:href="#i"/></g></g></g><g><g><use stroke="#000" stroke-width=".8" x="49.173438" xlink:href="#l" y="136.628125"/><g transform="matrix(.1 0 0 -.1 26.435938 140.427344)"><use xlink:href="#m"/><use x="54.980469" xlink:href="#n"/><use x="116.259766" xlink:href="#o"/></g></g><g><use stroke="#000" stroke-width=".8" x="49.173438" xlink:href="#l" y="103.968125"/><g transform="matrix(.1 0 0 -.1 7.2 107.767344)"><use xlink:href="#p"/><use x="63.476562" xlink:href="#q"/><use x="91.259766" xlink:href="#m"/><use x="146.240234" xlink:href="#r"/><use x="205.419922" xlink:href="#m"/><use x="260.400391" xlink:href="#s"/><use x="288.183594" xlink:href="#t"/></g></g><g><use stroke="#000" stroke-width=".8" x="49.173438" xlink:href="#l" y="71.308125"/><g transform="matrix(.1 0 0 -.1 23.428125 75.107344)"><use xlink:href="#u"/><use x="39.208984" xlink:href="#n"/><use x="100.488281" xlink:href="#v"/><use x="159.667969" xlink:href="#q"/></g></g><g><use stroke="#000" stroke-width=".8" x="49.173438" xlink:href="#l" y="38.648125"/><g transform="matrix(.1 0 0 -.1 24.278125 42.447344)"><use xlink:href="#p"/><use x="63.476562" xlink:href="#w"/><use x="126.855469" xlink:href="#x"/></g></g></g></g><path d="m49.173438 152.958125v-130.64" fill="none" stroke="#000" stroke-linecap="square" stroke-linejoin="miter" stroke-width=".8"/><path d="m239.031277 152.958125v-130.64" fill="none" stroke="#000" stroke-linecap="square" stroke-linejoin="miter" stroke-width=".8"/><path d="m49.173438 152.958125h189.857839" fill="none" stroke="#000" stroke-linecap="square" stroke-linejoin="miter" stroke-width=".8"/><path d="m49.173438 22.318125h189.857839" fill="none" stroke="#000" stroke-linecap="square" stroke-linejoin="miter" stroke-width=".8"/><g stroke-linejoin="round" transform="matrix(.12 0 0 -.12 86.852045 16.318125)"><use xlink:href="#y"/><use x="44.083984" xlink:href="#z"/><use x="105.265625" xlink:href="#u"/><use x="144.474609" xlink:href="#n"/><use x="205.753906" xlink:href="#s"/><use x="265.324219" xlink:href="#A"/><use x="328.800781" xlink:href="#q"/><use x="356.583984" xlink:href="#x"/><use x="408.683594" xlink:href="#u"/><use x="447.892578" xlink:href="#n"/><use x="509.171875" xlink:href="#B"/><use x="572.550781" xlink:href="#m"/><use x="627.53125" xlink:href="#t"/><use x="720.841797" xlink:href="#C"/><use x="759.855469" xlink:href="#i"/><use x="817.765625" xlink:href="#D"/><use x="915.177734" xlink:href="#E"/></g></g><g><g stroke-linejoin="round"><path d="m293.405598 152.958125h189.857839v-130.64h-189.857839z" fill="#fff"/><path clip-path="url(#b)" d="m293.405598 144.793125h169.85044v-16.33h-169.85044z" fill="#1f77b4"/><path clip-path="url(#b)" d="m293.405598 112.133125h12.42062v-16.33h-12.42062z" fill="#1f77b4"/><path clip-path="url(#b)" d="m293.405598 79.473125h1.341813v-16.33h-1.341813z" fill="#1f77b4"/><path clip-path="url(#b)" d="m293.405598 46.813125h12.176517v-16.33h-12.176517z" fill="#1f77b4"/><g><g><use stroke="#000" stroke-width=".8" x="320.528146" xlink:href="#e" y="152.958125"/><g transform="matrix(.1 0 0 -.1 314.165646 167.556563)"><use xlink:href="#h"/><use x="63.623047" xlink:href="#g"/></g></g><g><use stroke="#000" stroke-width=".8" x="347.650695" xlink:href="#e" y="152.958125"/><g transform="matrix(.1 0 0 -.1 341.288195 167.556563)"><use xlink:href="#k"/><use x="63.623047" xlink:href="#g"/></g></g><g><use stroke="#000" stroke-width=".8" x="374.773243" xlink:href="#e" y="152.958125"/><g transform="matrix(.1 0 0 -.1 368.410743 167.556563)"><use xlink:href="#F"/><use x="63.623047" xlink:href="#g"/></g></g><g><use stroke="#000" stroke-width=".8" x="401.895792" xlink:href="#e" y="152.958125"/><g transform="matrix(.1 0 0 -.1 395.533292 167.556563)"><use xlink:href="#G"/><use x="63.623047" xlink:href="#g"/></g></g><g><use stroke="#000" stroke-width=".8" x="429.01834" xlink:href="#e" y="152.958125"/><g transform="matrix(.1 0 0 -.1 422.65584 167.556563)"><use xlink:href="#f"/><use x="63.623047" xlink:href="#g"/></g></g><g><use stroke="#000" stroke-width=".8" x="456.140889" xlink:href="#e" y="152.958125"/><g transform="matrix(.1 0 0 -.1 449.778389 167.556563)"><path d="m2113 2584q-425 0-674-291-248-290-248-796 0-503 248-796 249-292 674-292 425 0 673 292 248 293 248 796 0 506-248 796-248 291-673 291zm1253 1979v-575q-238 112-480 171-242 60-480 60-625 0-955-422-329-422-376-1275 184 272 462 417 279 145 613 145 703 0 1111-427 408-426 408-1160 0-719-425-1154-425-434-1131-434-810 0-1238 620-428 621-428 1799 0 1106 525 1764 525 658 1409 658 238 0 480-47 242-47 505-140z" transform="scale(.015625)"/><use x="63.623047" xlink:href="#g"/></g></g><g><use stroke="#000" stroke-width=".8" x="483.263437" xlink:href="#e" y="152.958125"/><g transform="matrix(.1 0 0 -.1 476.900937 167.556563)"><path d="m525 4666h3000v-269l-1694-4397h-659l1594 4134h-2241z" transform="scale(.015625)"/><use x="63.623047" xlink:href="#g"/></g></g></g><g><g><use stroke="#000" stroke-width=".8" x="293.405598" xlink:href="#l" y="136.628125"/><g transform="matrix(.1 0 0 -.1 270.668098 140.427344)"><use xlink:href="#m"/><use x="54.980469" xlink:href="#n"/><use x="116.259766" xlink:href="#o"/></g></g><g><use stroke="#000" stroke-width=".8" x="293.405598" xlink:href="#l" y="103.968125"/><g transform="matrix(.1 0 0 -.1 251.43216 107.767344)"><use xlink:href="#p"/><use x="63.476562" xlink:href="#q"/><use x="91.259766" xlink:href="#m"/><use x="146.240234" xlink:href="#r"/><use x="205.419922" xlink:href="#m"/><use x="260.400391" xlink:href="#s"/><use x="288.183594" xlink:href="#t"/></g></g><g><use stroke="#000" stroke-width=".8" x="293.405598" xlink:href="#l" y="71.308125"/><g transform="matrix(.1 0 0 -.1 267.660285 75.107344)"><use xlink:href="#u"/><use x="39.208984" xlink:href="#n"/><use x="100.488281" xlink:href="#v"/><use x="159.667969" xlink:href="#q"/></g></g><g><use stroke="#000" stroke-width=".8" x="293.405598" xlink:href="#l" y="38.648125"/><g transform="matrix(.1 0 0 -.1 268.510285 42.447344)"><use xlink:href="#p"/><use x="63.476562" xlink:href="#w"/><use x="126.855469" xlink:href="#x"/></g></g></g></g><path d="m293.405598 152.958125v-130.64" fill="none" stroke="#000" stroke-linecap="square" stroke-linejoin="miter" stroke-width=".8"/><path d="m483.263437 152.958125v-130.64" fill="none" stroke="#000" stroke-linecap="square" stroke-linejoin="miter" stroke-width=".8"/><path d="m293.405598 152.958125h189.857839" fill="none" stroke="#000" stroke-linecap="square" stroke-linejoin="miter" stroke-width=".8"/><path d="m293.405598 22.318125h189.857839" fill="none" stroke="#000" stroke-linecap="square" stroke-linejoin="miter" stroke-width=".8"/><g stroke-linejoin="round" transform="matrix(.12 0 0 -.12 348.469205 16.318125)"><use xlink:href="#y"/><use x="44.083984" xlink:href="#z"/><use x="105.265625" xlink:href="#u"/><use x="144.474609" xlink:href="#n"/><use x="205.753906" xlink:href="#s"/><use x="265.324219" xlink:href="#u"/><use x="304.533203" xlink:href="#q"/><use x="332.316406" xlink:href="#D"/><use x="429.728516" xlink:href="#t"/><use x="523.039062" xlink:href="#C"/><use x="562.052734" xlink:href="#H"/><use x="625.431641" xlink:href="#E"/></g></g><g><g stroke-linejoin="round"><path d="m49.173438 327.558125h189.857839v-130.64h-189.857839z" fill="#fff"/><path clip-path="url(#c)" d="m49.173438 319.393125h143.762146v-16.33h-143.762146z" fill="#1f77b4"/><path clip-path="url(#c)" d="m49.173438 286.733125h58.808763v-16.33h-58.808763z" fill="#1f77b4"/><path clip-path="url(#c)" d="m49.173438 254.073125h180.81699v-16.33h-180.81699z" fill="#1f77b4"/><path clip-path="url(#c)" d="m49.173438 221.413125h47.166757v-16.33h-47.166757z" fill="#1f77b4"/><g><g><use stroke="#000" stroke-width=".8" x="86.132188" xlink:href="#e" y="327.558125"/><g transform="matrix(.1 0 0 -.1 79.769688 342.156563)"><use xlink:href="#h"/><use x="63.623047" xlink:href="#g"/></g></g><g><use stroke="#000" stroke-width=".8" x="123.090938" xlink:href="#e" y="327.558125"/><g transform="matrix(.1 0 0 -.1 116.728438 342.156563)"><use xlink:href="#k"/><use x="63.623047" xlink:href="#g"/></g></g><g><use stroke="#000" stroke-width=".8" x="160.049688" xlink:href="#e" y="327.558125"/><g transform="matrix(.1 0 0 -.1 153.687188 342.156563)"><use xlink:href="#F"/><use x="63.623047" xlink:href="#g"/></g></g><g><use stroke="#000" stroke-width=".8" x="197.008439" xlink:href="#e" y="327.558125"/><g transform="matrix(.1 0 0 -.1 190.645939 342.156563)"><use xlink:href="#G"/><use x="63.623047" xlink:href="#g"/></g></g><g><use stroke="#000" stroke-width=".8" x="233.967189" xlink:href="#e" y="327.558125"/><g transform="matrix(.1 0 0 -.1 227.604689 342.156563)"><use xlink:href="#f"/><use x="63.623047" xlink:href="#g"/></g></g></g><g><g><use stroke="#000" stroke-width=".8" x="49.173438" xlink:href="#l" y="311.228125"/><g transform="matrix(.1 0 0 -.1 26.435938 315.027344)"><use xlink:href="#m"/><use x="54.980469" xlink:href="#n"/><use x="116.259766" xlink:href="#o"/></g></g><g><use stroke="#000" stroke-width=".8" x="49.173438" xlink:href="#l" y="278.568125"/><g transform="matrix(.1 0 0 -.1 7.2 282.367344)"><use xlink:href="#p"/><use x="63.476562" xlink:href="#q"/><use x="91.259766" xlink:href="#m"/><use x="146.240234" xlink:href="#r"/><use x="205.419922" xlink:href="#m"/><use x="260.400391" xlink:href="#s"/><use x="288.183594" xlink:href="#t"/></g></g><g><use stroke="#000" stroke-width=".8" x="49.173438" xlink:href="#l" y="245.908125"/><g transform="matrix(.1 0 0 -.1 23.428125 249.707344)"><use xlink:href="#u"/><use x="39.208984" xlink:href="#n"/><use x="100.488281" xlink:href="#v"/><use x="159.667969" xlink:href="#q"/></g></g><g><use stroke="#000" stroke-width=".8" x="49.173438" xlink:href="#l" y="213.248125"/><g transform="matrix(.1 0 0 -.1 24.278125 217.047344)"><use xlink:href="#p"/><use x="63.476562" xlink:href="#w"/><use x="126.855469" xlink:href="#x"/></g></g></g></g><path d="m49.173438 327.558125v-130.64" fill="none" stroke="#000" stroke-linecap="square" stroke-linejoin="miter" stroke-width=".8"/><path d="m239.031277 327.558125v-130.64" fill="none" stroke="#000" stroke-linecap="square" stroke-linejoin="miter" stroke-width=".8"/><path d="m49.173438 327.558125h189.857839" fill="none" stroke="#000" stroke-linecap="square" stroke-linejoin="miter" stroke-width=".8"/><path d="m49.173438 196.918125h189.857839" fill="none" stroke="#000" stroke-linecap="square" stroke-linejoin="miter" stroke-width=".8"/><g stroke-linejoin="round" transform="matrix(.12 0 0 -.12 84.569232 190.918125)"><use xlink:href="#I"/><use x="86.279297" xlink:href="#t"/><use x="147.802734" xlink:href="#A"/><use x="211.279297" xlink:href="#q"/><use x="239.0625" xlink:href="#n"/><use x="300.341797" xlink:href="#B"/><use x="395.507812" xlink:href="#x"/><use x="447.607422" xlink:href="#J"/><use x="511.083984" xlink:href="#t"/><use x="572.607422" xlink:href="#t"/><use x="634.130859" xlink:href="#A"/><use x="729.394531" xlink:href="#C"/><use x="768.408203" xlink:href="#i"/><use x="826.318359" xlink:href="#J"/><use x="889.794922" xlink:href="#H"/><use x="953.173828" xlink:href="#E"/></g></g><g><g stroke-linejoin="round"><path d="m293.405598 327.558125h189.857839v-130.64h-189.857839z" fill="#fff"/><path clip-path="url(#d)" d="m293.405598 319.393125h162.340971v-16.33h-162.340971z" fill="#1f77b4"/><path clip-path="url(#d)" d="m293.405598 286.733125h180.81699v-16.33h-180.81699z" fill="#1f77b4"/><path clip-path="url(#d)" d="m293.405598 254.073125h166.328823v-16.33h-166.328823z" fill="#1f77b4"/><path clip-path="url(#d)" d="m293.405598 221.413125h29.254555v-16.33h-29.254555z" fill="#1f77b4"/><g><g><use stroke="#000" stroke-width=".8" x="327.754025" xlink:href="#e" y="327.558125"/><use transform="matrix(.1 0 0 -.1 324.572775 342.156563)" xlink:href="#f"/></g><g><use stroke="#000" stroke-width=".8" x="362.102452" xlink:href="#e" y="327.558125"/><g transform="matrix(.1 0 0 -.1 355.739952 342.156563)"><use xlink:href="#h"/><use x="63.623047" xlink:href="#g"/></g></g><g><use stroke="#000" stroke-width=".8" x="396.450879" xlink:href="#e" y="327.558125"/><g transform="matrix(.1 0 0 -.1 390.088379 342.156563)"><use xlink:href="#h"/><use x="63.623047" xlink:href="#f"/></g></g><g><use stroke="#000" stroke-width=".8" x="430.799306" xlink:href="#e" y="327.558125"/><g transform="matrix(.1 0 0 -.1 424.436806 342.156563)"><use xlink:href="#k"/><use x="63.623047" xlink:href="#g"/></g></g><g><use stroke="#000" stroke-width=".8" x="465.147734" xlink:href="#e" y="327.558125"/><g transform="matrix(.1 0 0 -.1 458.785234 342.156563)"><use xlink:href="#k"/><use x="63.623047" xlink:href="#f"/></g></g></g><g><g><use stroke="#000" stroke-width=".8" x="293.405598" xlink:href="#l" y="311.228125"/><g transform="matrix(.1 0 0 -.1 270.668098 315.027344)"><use xlink:href="#m"/><use x="54.980469" xlink:href="#n"/><use x="116.259766" xlink:href="#o"/></g></g><g><use stroke="#000" stroke-width=".8" x="293.405598" xlink:href="#l" y="278.568125"/><g transform="matrix(.1 0 0 -.1 251.43216 282.367344)"><use xlink:href="#p"/><use x="63.476562" xlink:href="#q"/><use x="91.259766" xlink:href="#m"/><use x="146.240234" xlink:href="#r"/><use x="205.419922" xlink:href="#m"/><use x="260.400391" xlink:href="#s"/><use x="288.183594" xlink:href="#t"/></g></g><g><use stroke="#000" stroke-width=".8" x="293.405598" xlink:href="#l" y="245.908125"/><g transform="matrix(.1 0 0 -.1 267.660285 249.707344)"><use xlink:href="#u"/><use x="39.208984" xlink:href="#n"/><use x="100.488281" xlink:href="#v"/><use x="159.667969" xlink:href="#q"/></g></g><g><use stroke="#000" stroke-width=".8" x="293.405598" xlink:href="#l" y="213.248125"/><g transform="matrix(.1 0 0 -.1 268.510285 217.047344)"><use xlink:href="#p"/><use x="63.476562" xlink:href="#w"/><use x="126.855469" xlink:href="#x"/></g></g></g></g><path d="m293.405598 327.558125v-130.64" fill="none" stroke="#000" stroke-linecap="square" stroke-linejoin="miter" stroke-width=".8"/><path d="m483.263437 327.558125v-130.64" fill="none" stroke="#000" stroke-linecap="square" stroke-linejoin="miter" stroke-width=".8"/><path d="m293.405598 327.558125h189.857839" fill="none" stroke="#000" stroke-linecap="square" stroke-linejoin="miter" stroke-width=".8"/><path d="m293.405598 196.918125h189.857839" fill="none" stroke="#000" stroke-linecap="square" stroke-linejoin="miter" stroke-width=".8"/><g stroke-linejoin="round" transform="matrix(.12 0 0 -.12 323.272018 190.918125)"><use xlink:href="#I"/><use x="86.279297" xlink:href="#t"/><use x="147.802734" xlink:href="#A"/><use x="211.279297" xlink:href="#q"/><use x="239.0625" xlink:href="#n"/><use x="300.341797" xlink:href="#B"/><use x="395.507812" xlink:href="#A"/><use x="458.984375" xlink:href="#q"/><use x="486.767578" xlink:href="#x"/><use x="538.867188" xlink:href="#u"/><use x="578.076172" xlink:href="#n"/><use x="639.355469" xlink:href="#B"/><use x="702.734375" xlink:href="#m"/><use x="757.714844" xlink:href="#t"/><use x="851.025391" xlink:href="#C"/><use x="890.039062" xlink:href="#i"/><use x="947.949219" xlink:href="#D"/><use x="1045.361328" xlink:href="#E"/></g></g></g></svg>