<svg xmlns="http://www.w3.org/2000/svg" xmlns:xlink="http://www.w3.org/1999/xlink" version="1.1" x="0px" y="0px" viewBox="0 0 100 110" xml:space="preserve"><g><g><path fill="none" d="M58.591,56.318l-3.153-3.153c-0.306,0.342-0.611,0.665-0.921,0.976c-0.167,0.167-0.34,0.334-0.516,0.501    l3.133,3.132L58.591,56.318z"/><path fill="none" d="M49.053,52.655c0.812-0.643,1.503-1.253,2.115-1.863c0.716-0.716,1.415-1.536,2.203-2.58    c3.064-4.063,4.747-8.905,4.87-14.005c-0.159-6.278-2.67-12.159-7.073-16.565C41.696,8.17,26.284,8.17,16.813,17.64    c-4.401,4.405-6.912,10.282-7.074,16.554c0.148,6.273,2.643,12.151,7.032,16.562c0.045,0.041,0.094,0.087,0.125,0.119    c8.688,8.626,22.509,9.406,32.136,1.797C49.039,52.666,49.046,52.661,49.053,52.655z"/><rect x="70.75" y="54.966" transform="matrix(0.7071 -0.7071 0.7071 0.7071 -30.2198 74.0989)" fill="none" width="7.16" height="37.12"/><path d="M94.686,82.56c0-0.001,0-0.001,0-0.002c-0.207-0.497-0.504-0.94-0.878-1.314L66.615,54.046    c-0.769-0.767-1.79-1.191-2.875-1.191c-0.001,0-0.001,0-0.002,0c-0.555,0-1.091,0.113-1.587,0.323l-3.811-3.811    c2.922-4.504,4.518-9.686,4.637-15.11c0-0.01,0-0.02,0-0.031c0-0.003,0.001-0.006,0.001-0.009c0-0.02,0-0.042-0.001-0.063    c0-0.001,0-0.003,0-0.004c-0.174-7.522-3.178-14.574-8.46-19.858C43.198,2.974,24.782,2.976,13.463,14.291    c-5.276,5.28-8.28,12.323-8.46,19.832c0,0.004-0.001,0.009-0.002,0.013c0,0.011,0,0.023-0.001,0.035c0,0.016,0,0.031,0,0.046    c0,0.028,0,0.055,0.001,0.079c0,0.013,0.005,0.025,0.005,0.039c0.184,7.503,3.183,14.535,8.455,19.809    c0.027,0.028,0.071,0.068,0.111,0.105c9.914,9.811,25.339,11.114,36.713,3.376l3.711,3.71c-0.631,1.483-0.35,3.267,0.856,4.476    l27.196,27.194c0.769,0.769,1.791,1.192,2.876,1.192c0.002,0,0.004,0,0.006,0c1.086-0.001,2.106-0.426,2.869-1.193l6.007-6.009    C94.976,85.826,95.321,84.085,94.686,82.56z M54.001,54.642c0.177-0.167,0.349-0.334,0.516-0.501    c0.31-0.311,0.616-0.634,0.921-0.976l3.153,3.153l-1.458,1.457L54.001,54.642z M16.896,50.875    c-0.031-0.032-0.08-0.079-0.125-0.119c-4.389-4.411-6.884-10.289-7.032-16.562c0.161-6.272,2.672-12.149,7.074-16.554    c9.472-9.47,24.883-9.47,34.354,0.002c4.404,4.406,6.915,10.287,7.073,16.565c-0.123,5.099-1.806,9.942-4.87,14.005    c-0.787,1.044-1.487,1.864-2.203,2.58c-0.612,0.611-1.303,1.22-2.115,1.863c-0.006,0.006-0.013,0.011-0.02,0.017    C39.405,60.281,25.585,59.501,16.896,50.875z M84.923,89.181l-26.25-26.247l5.066-5.064l26.245,26.25L84.923,89.181z"/></g></g></svg>
