<?xml version="1.0" encoding="utf-8" standalone="no"?>
<!DOCTYPE svg PUBLIC "-//W3C//DTD SVG 1.1//EN"
  "http://www.w3.org/Graphics/SVG/1.1/DTD/svg11.dtd">
<svg xmlns:xlink="http://www.w3.org/1999/xlink" width="496.440625pt" height="351.59625pt" viewBox="0 0 496.440625 351.59625" xmlns="http://www.w3.org/2000/svg" version="1.1">
 <metadata>
  <rdf:RDF xmlns:dc="http://purl.org/dc/elements/1.1/" xmlns:cc="http://creativecommons.org/ns#" xmlns:rdf="http://www.w3.org/1999/02/22-rdf-syntax-ns#">
   <cc:Work>
    <dc:type rdf:resource="http://purl.org/dc/dcmitype/StillImage"/>
    <dc:date>2022-12-01T13:11:32.309167</dc:date>
    <dc:format>image/svg+xml</dc:format>
    <dc:creator>
     <cc:Agent>
      <dc:title>Matplotlib v3.5.1, https://matplotlib.org/</dc:title>
     </cc:Agent>
    </dc:creator>
   </cc:Work>
  </rdf:RDF>
 </metadata>
 <defs>
  <style type="text/css">*{stroke-linejoin: round; stroke-linecap: butt}</style>
 </defs>
 <g id="figure_1">
  <g id="patch_1">
   <path d="M 0 351.59625 
L 496.440625 351.59625 
L 496.440625 0 
L 0 0 
L 0 351.59625 
z
" style="fill: none"/>
  </g>
  <g id="axes_1">
   <g id="patch_2">
    <path d="M 46.965625 327.718125 
L 489.240625 327.718125 
L 489.240625 22.318125 
L 46.965625 22.318125 
z
" style="fill: #ffffff"/>
   </g>
   <g id="patch_3">
    <path d="M 67.069034 327.718125 
L 72.257011 327.718125 
L 72.257011 327.718125 
L 67.069034 327.718125 
z
" clip-path="url(#p92e4e95df3)" style="fill: #77cae0"/>
   </g>
   <g id="patch_4">
    <path d="M 101.655544 327.718125 
L 106.843521 327.718125 
L 106.843521 327.718125 
L 101.655544 327.718125 
z
" clip-path="url(#p92e4e95df3)" style="fill: #77cae0"/>
   </g>
   <g id="patch_5">
    <path d="M 136.242055 327.718125 
L 141.430031 327.718125 
L 141.430031 88.743608 
L 136.242055 88.743608 
z
" clip-path="url(#p92e4e95df3)" style="fill: #77cae0"/>
   </g>
   <g id="patch_6">
    <path d="M 170.828565 327.718125 
L 176.016541 327.718125 
L 176.016541 77.738202 
L 170.828565 77.738202 
z
" clip-path="url(#p92e4e95df3)" style="fill: #77cae0"/>
   </g>
   <g id="patch_7">
    <path d="M 205.415075 327.718125 
L 210.603052 327.718125 
L 210.603052 90.315808 
L 205.415075 90.315808 
z
" clip-path="url(#p92e4e95df3)" style="fill: #77cae0"/>
   </g>
   <g id="patch_8">
    <path d="M 240.001585 327.718125 
L 245.189562 327.718125 
L 245.189562 176.786851 
L 240.001585 176.786851 
z
" clip-path="url(#p92e4e95df3)" style="fill: #77cae0"/>
   </g>
   <g id="patch_9">
    <path d="M 274.588096 327.718125 
L 279.776072 327.718125 
L 279.776072 220.808472 
L 274.588096 220.808472 
z
" clip-path="url(#p92e4e95df3)" style="fill: #77cae0"/>
   </g>
   <g id="patch_10">
    <path d="M 309.174606 327.718125 
L 314.362582 327.718125 
L 314.362582 36.860982 
L 309.174606 36.860982 
z
" clip-path="url(#p92e4e95df3)" style="fill: #77cae0"/>
   </g>
   <g id="patch_11">
    <path d="M 343.761116 327.718125 
L 348.949093 327.718125 
L 348.949093 121.759824 
L 343.761116 121.759824 
z
" clip-path="url(#p92e4e95df3)" style="fill: #77cae0"/>
   </g>
   <g id="patch_12">
    <path d="M 378.347626 327.718125 
L 383.535603 327.718125 
L 383.535603 170.498048 
L 378.347626 170.498048 
z
" clip-path="url(#p92e4e95df3)" style="fill: #77cae0"/>
   </g>
   <g id="patch_13">
    <path d="M 412.934137 327.718125 
L 418.122113 327.718125 
L 418.122113 327.718125 
L 412.934137 327.718125 
z
" clip-path="url(#p92e4e95df3)" style="fill: #77cae0"/>
   </g>
   <g id="patch_14">
    <path d="M 447.520647 327.718125 
L 452.708624 327.718125 
L 452.708624 327.718125 
L 447.520647 327.718125 
z
" clip-path="url(#p92e4e95df3)" style="fill: #77cae0"/>
   </g>
   <g id="patch_15">
    <path d="M 71.392348 327.718125 
L 78.30965 327.718125 
L 78.30965 178.359052 
L 71.392348 178.359052 
z
" clip-path="url(#p92e4e95df3)" style="fill: #5ab1cc"/>
   </g>
   <g id="patch_16">
    <path d="M 105.978858 327.718125 
L 112.89616 327.718125 
L 112.89616 137.481832 
L 105.978858 137.481832 
z
" clip-path="url(#p92e4e95df3)" style="fill: #5ab1cc"/>
   </g>
   <g id="patch_17">
    <path d="M 140.565368 327.718125 
L 147.48267 327.718125 
L 147.48267 79.310403 
L 140.565368 79.310403 
z
" clip-path="url(#p92e4e95df3)" style="fill: #5ab1cc"/>
   </g>
   <g id="patch_18">
    <path d="M 175.151879 327.718125 
L 182.069181 327.718125 
L 182.069181 126.476426 
L 175.151879 126.476426 
z
" clip-path="url(#p92e4e95df3)" style="fill: #5ab1cc"/>
   </g>
   <g id="patch_19">
    <path d="M 209.738389 327.718125 
L 216.655691 327.718125 
L 216.655691 99.749013 
L 209.738389 99.749013 
z
" clip-path="url(#p92e4e95df3)" style="fill: #5ab1cc"/>
   </g>
   <g id="patch_20">
    <path d="M 244.324899 327.718125 
L 251.242201 327.718125 
L 251.242201 209.803067 
L 244.324899 209.803067 
z
" clip-path="url(#p92e4e95df3)" style="fill: #5ab1cc"/>
   </g>
   <g id="patch_21">
    <path d="M 278.911409 327.718125 
L 285.828712 327.718125 
L 285.828712 236.53048 
L 278.911409 236.53048 
z
" clip-path="url(#p92e4e95df3)" style="fill: #5ab1cc"/>
   </g>
   <g id="patch_22">
    <path d="M 313.49792 327.718125 
L 320.415222 327.718125 
L 320.415222 154.77604 
L 313.49792 154.77604 
z
" clip-path="url(#p92e4e95df3)" style="fill: #5ab1cc"/>
   </g>
   <g id="patch_23">
    <path d="M 348.08443 327.718125 
L 355.001732 327.718125 
L 355.001732 126.476426 
L 348.08443 126.476426 
z
" clip-path="url(#p92e4e95df3)" style="fill: #5ab1cc"/>
   </g>
   <g id="patch_24">
    <path d="M 382.67094 327.718125 
L 389.588242 327.718125 
L 389.588242 176.00075 
L 382.67094 176.00075 
z
" clip-path="url(#p92e4e95df3)" style="fill: #5ab1cc"/>
   </g>
   <g id="patch_25">
    <path d="M 417.257451 327.718125 
L 424.174753 327.718125 
L 424.174753 85.441986 
L 417.257451 85.441986 
z
" clip-path="url(#p92e4e95df3)" style="fill: #5ab1cc"/>
   </g>
   <g id="patch_26">
    <path d="M 451.843961 327.718125 
L 458.761263 327.718125 
L 458.761263 176.629631 
L 451.843961 176.629631 
z
" clip-path="url(#p92e4e95df3)" style="fill: #5ab1cc"/>
   </g>
   <g id="patch_27">
    <path d="M 76.580324 327.718125 
L 83.497626 327.718125 
L 83.497626 187.399206 
L 76.580324 187.399206 
z
" clip-path="url(#p92e4e95df3)" style="fill: #3e9888"/>
   </g>
   <g id="patch_28">
    <path d="M 111.166835 327.718125 
L 118.084137 327.718125 
L 118.084137 124.904225 
L 111.166835 124.904225 
z
" clip-path="url(#p92e4e95df3)" style="fill: #3e9888"/>
   </g>
   <g id="patch_29">
    <path d="M 145.753345 327.718125 
L 152.670647 327.718125 
L 152.670647 69.719978 
L 145.753345 69.719978 
z
" clip-path="url(#p92e4e95df3)" style="fill: #3e9888"/>
   </g>
   <g id="patch_30">
    <path d="M 180.339855 327.718125 
L 187.257157 327.718125 
L 187.257157 52.58299 
L 180.339855 52.58299 
z
" clip-path="url(#p92e4e95df3)" style="fill: #3e9888"/>
   </g>
   <g id="patch_31">
    <path d="M 214.926365 327.718125 
L 221.843668 327.718125 
L 221.843668 60.443994 
L 214.926365 60.443994 
z
" clip-path="url(#p92e4e95df3)" style="fill: #3e9888"/>
   </g>
   <g id="patch_32">
    <path d="M 249.512876 327.718125 
L 256.430178 327.718125 
L 256.430178 58.871793 
L 249.512876 58.871793 
z
" clip-path="url(#p92e4e95df3)" style="fill: #3e9888"/>
   </g>
   <g id="patch_33">
    <path d="M 284.099386 327.718125 
L 291.016688 327.718125 
L 291.016688 196.706635 
L 284.099386 196.706635 
z
" clip-path="url(#p92e4e95df3)" style="fill: #3e9888"/>
   </g>
   <g id="patch_34">
    <path d="M 318.685896 327.718125 
L 325.603198 327.718125 
L 325.603198 109.968318 
L 318.685896 109.968318 
z
" clip-path="url(#p92e4e95df3)" style="fill: #3e9888"/>
   </g>
   <g id="patch_35">
    <path d="M 353.272407 327.718125 
L 360.189709 327.718125 
L 360.189709 145.500056 
L 353.272407 145.500056 
z
" clip-path="url(#p92e4e95df3)" style="fill: #3e9888"/>
   </g>
   <g id="patch_36">
    <path d="M 387.858917 327.718125 
L 394.776219 327.718125 
L 394.776219 117.829322 
L 387.858917 117.829322 
z
" clip-path="url(#p92e4e95df3)" style="fill: #3e9888"/>
   </g>
   <g id="patch_37">
    <path d="M 422.445427 327.718125 
L 429.362729 327.718125 
L 429.362729 92.67411 
L 422.445427 92.67411 
z
" clip-path="url(#p92e4e95df3)" style="fill: #3e9888"/>
   </g>
   <g id="patch_38">
    <path d="M 457.031937 327.718125 
L 463.949239 327.718125 
L 463.949239 139.447083 
L 457.031937 139.447083 
z
" clip-path="url(#p92e4e95df3)" style="fill: #3e9888"/>
   </g>
   <g id="patch_39">
    <path d="M 81.768301 327.718125 
L 88.685603 327.718125 
L 88.685603 62.802295 
L 81.768301 62.802295 
z
" clip-path="url(#p92e4e95df3)" style="fill: #217ea3"/>
   </g>
   <g id="patch_40">
    <path d="M 116.354811 327.718125 
L 123.272113 327.718125 
L 123.272113 82.926465 
L 116.354811 82.926465 
z
" clip-path="url(#p92e4e95df3)" style="fill: #217ea3"/>
   </g>
   <g id="patch_41">
    <path d="M 150.941321 327.718125 
L 157.858624 327.718125 
L 157.858624 55.255731 
L 150.941321 55.255731 
z
" clip-path="url(#p92e4e95df3)" style="fill: #217ea3"/>
   </g>
   <g id="patch_42">
    <path d="M 185.527832 327.718125 
L 192.445134 327.718125 
L 192.445134 66.575577 
L 185.527832 66.575577 
z
" clip-path="url(#p92e4e95df3)" style="fill: #217ea3"/>
   </g>
   <g id="patch_43">
    <path d="M 220.114342 327.718125 
L 227.031644 327.718125 
L 227.031644 77.580982 
L 220.114342 77.580982 
z
" clip-path="url(#p92e4e95df3)" style="fill: #217ea3"/>
   </g>
   <g id="patch_44">
    <path d="M 254.700852 327.718125 
L 261.618154 327.718125 
L 261.618154 154.77604 
L 254.700852 154.77604 
z
" clip-path="url(#p92e4e95df3)" style="fill: #217ea3"/>
   </g>
   <g id="patch_45">
    <path d="M 289.287363 327.718125 
L 296.204665 327.718125 
L 296.204665 201.784843 
L 289.287363 201.784843 
z
" clip-path="url(#p92e4e95df3)" style="fill: #217ea3"/>
   </g>
   <g id="patch_46">
    <path d="M 323.873873 327.718125 
L 330.791175 327.718125 
L 330.791175 221.122913 
L 323.873873 221.122913 
z
" clip-path="url(#p92e4e95df3)" style="fill: #217ea3"/>
   </g>
   <g id="patch_47">
    <path d="M 358.460383 327.718125 
L 365.377685 327.718125 
L 365.377685 80.096503 
L 358.460383 80.096503 
z
" clip-path="url(#p92e4e95df3)" style="fill: #217ea3"/>
   </g>
   <g id="patch_48">
    <path d="M 393.046893 327.718125 
L 399.964195 327.718125 
L 399.964195 59.264843 
L 393.046893 59.264843 
z
" clip-path="url(#p92e4e95df3)" style="fill: #217ea3"/>
   </g>
   <g id="patch_49">
    <path d="M 427.633404 327.718125 
L 434.550706 327.718125 
L 434.550706 99.749013 
L 427.633404 99.749013 
z
" clip-path="url(#p92e4e95df3)" style="fill: #217ea3"/>
   </g>
   <g id="patch_50">
    <path d="M 462.219914 327.718125 
L 469.137216 327.718125 
L 469.137216 143.298974 
L 462.219914 143.298974 
z
" clip-path="url(#p92e4e95df3)" style="fill: #217ea3"/>
   </g>
   <g id="patch_51">
    <path d="M 86.956277 327.718125 
L 93.87358 327.718125 
L 93.87358 85.756426 
L 86.956277 85.756426 
z
" clip-path="url(#p92e4e95df3)" style="fill: #f3822a"/>
   </g>
   <g id="patch_52">
    <path d="M 121.542788 327.718125 
L 128.46009 327.718125 
L 128.46009 125.690326 
L 121.542788 125.690326 
z
" clip-path="url(#p92e4e95df3)" style="fill: #f3822a"/>
   </g>
   <g id="patch_53">
    <path d="M 156.129298 327.718125 
L 163.0466 327.718125 
L 163.0466 206.501445 
L 156.129298 206.501445 
z
" clip-path="url(#p92e4e95df3)" style="fill: #f3822a"/>
   </g>
   <g id="patch_54">
    <path d="M 190.715808 327.718125 
L 197.63311 327.718125 
L 197.63311 102.578974 
L 190.715808 102.578974 
z
" clip-path="url(#p92e4e95df3)" style="fill: #f3822a"/>
   </g>
   <g id="patch_55">
    <path d="M 225.302319 327.718125 
L 232.219621 327.718125 
L 232.219621 175.05743 
L 225.302319 175.05743 
z
" clip-path="url(#p92e4e95df3)" style="fill: #f3822a"/>
   </g>
   <g id="patch_56">
    <path d="M 259.888829 327.718125 
L 266.806131 327.718125 
L 266.806131 212.554418 
L 259.888829 212.554418 
z
" clip-path="url(#p92e4e95df3)" style="fill: #f3822a"/>
   </g>
   <g id="patch_57">
    <path d="M 294.475339 327.718125 
L 301.392641 327.718125 
L 301.392641 244.705924 
L 294.475339 244.705924 
z
" clip-path="url(#p92e4e95df3)" style="fill: #f3822a"/>
   </g>
   <g id="patch_58">
    <path d="M 329.061849 327.718125 
L 335.979151 327.718125 
L 335.979151 117.011778 
L 329.061849 117.011778 
z
" clip-path="url(#p92e4e95df3)" style="fill: #f3822a"/>
   </g>
   <g id="patch_59">
    <path d="M 363.64836 327.718125 
L 370.565662 327.718125 
L 370.565662 160.546017 
L 363.64836 160.546017 
z
" clip-path="url(#p92e4e95df3)" style="fill: #f3822a"/>
   </g>
   <g id="patch_60">
    <path d="M 398.23487 327.718125 
L 405.152172 327.718125 
L 405.152172 144.556735 
L 398.23487 144.556735 
z
" clip-path="url(#p92e4e95df3)" style="fill: #f3822a"/>
   </g>
   <g id="patch_61">
    <path d="M 432.82138 327.718125 
L 439.738682 327.718125 
L 439.738682 167.353646 
L 432.82138 167.353646 
z
" clip-path="url(#p92e4e95df3)" style="fill: #f3822a"/>
   </g>
   <g id="patch_62">
    <path d="M 0 0 
z
" clip-path="url(#p92e4e95df3)" style="fill: #f3822a"/>
   </g>
   <g id="matplotlib.axis_1">
    <g id="xtick_1">
     <g id="line2d_1">
      <defs>
       <path id="m6c7f232dcd" d="M 0 0 
L 0 3.5 
" style="stroke: #000000; stroke-width: 0.8"/>
      </defs>
      <g>
       <use xlink:href="#m6c7f232dcd" x="69.663022" y="327.718125" style="stroke: #000000; stroke-width: 0.8"/>
      </g>
     </g>
     <g id="text_1">
      <!-- Jan -->
      <g transform="translate(61.95521 342.316562)scale(0.1 -0.1)">
       <defs>
        <path id="DejaVuSans-4a" d="M 628 4666 
L 1259 4666 
L 1259 325 
Q 1259 -519 939 -900 
Q 619 -1281 -91 -1281 
L -331 -1281 
L -331 -750 
L -134 -750 
Q 284 -750 456 -515 
Q 628 -281 628 325 
L 628 4666 
z
" transform="scale(0.015625)"/>
        <path id="DejaVuSans-61" d="M 2194 1759 
Q 1497 1759 1228 1600 
Q 959 1441 959 1056 
Q 959 750 1161 570 
Q 1363 391 1709 391 
Q 2188 391 2477 730 
Q 2766 1069 2766 1631 
L 2766 1759 
L 2194 1759 
z
M 3341 1997 
L 3341 0 
L 2766 0 
L 2766 531 
Q 2569 213 2275 61 
Q 1981 -91 1556 -91 
Q 1019 -91 701 211 
Q 384 513 384 1019 
Q 384 1609 779 1909 
Q 1175 2209 1959 2209 
L 2766 2209 
L 2766 2266 
Q 2766 2663 2505 2880 
Q 2244 3097 1772 3097 
Q 1472 3097 1187 3025 
Q 903 2953 641 2809 
L 641 3341 
Q 956 3463 1253 3523 
Q 1550 3584 1831 3584 
Q 2591 3584 2966 3190 
Q 3341 2797 3341 1997 
z
" transform="scale(0.015625)"/>
        <path id="DejaVuSans-6e" d="M 3513 2113 
L 3513 0 
L 2938 0 
L 2938 2094 
Q 2938 2591 2744 2837 
Q 2550 3084 2163 3084 
Q 1697 3084 1428 2787 
Q 1159 2491 1159 1978 
L 1159 0 
L 581 0 
L 581 3500 
L 1159 3500 
L 1159 2956 
Q 1366 3272 1645 3428 
Q 1925 3584 2291 3584 
Q 2894 3584 3203 3211 
Q 3513 2838 3513 2113 
z
" transform="scale(0.015625)"/>
       </defs>
       <use xlink:href="#DejaVuSans-4a"/>
       <use xlink:href="#DejaVuSans-61" x="29.492188"/>
       <use xlink:href="#DejaVuSans-6e" x="90.771484"/>
      </g>
     </g>
    </g>
    <g id="xtick_2">
     <g id="line2d_2">
      <g>
       <use xlink:href="#m6c7f232dcd" x="104.249533" y="327.718125" style="stroke: #000000; stroke-width: 0.8"/>
      </g>
     </g>
     <g id="text_2">
      <!-- Feb -->
      <g transform="translate(95.39797 342.316562)scale(0.1 -0.1)">
       <defs>
        <path id="DejaVuSans-46" d="M 628 4666 
L 3309 4666 
L 3309 4134 
L 1259 4134 
L 1259 2759 
L 3109 2759 
L 3109 2228 
L 1259 2228 
L 1259 0 
L 628 0 
L 628 4666 
z
" transform="scale(0.015625)"/>
        <path id="DejaVuSans-65" d="M 3597 1894 
L 3597 1613 
L 953 1613 
Q 991 1019 1311 708 
Q 1631 397 2203 397 
Q 2534 397 2845 478 
Q 3156 559 3463 722 
L 3463 178 
Q 3153 47 2828 -22 
Q 2503 -91 2169 -91 
Q 1331 -91 842 396 
Q 353 884 353 1716 
Q 353 2575 817 3079 
Q 1281 3584 2069 3584 
Q 2775 3584 3186 3129 
Q 3597 2675 3597 1894 
z
M 3022 2063 
Q 3016 2534 2758 2815 
Q 2500 3097 2075 3097 
Q 1594 3097 1305 2825 
Q 1016 2553 972 2059 
L 3022 2063 
z
" transform="scale(0.015625)"/>
        <path id="DejaVuSans-62" d="M 3116 1747 
Q 3116 2381 2855 2742 
Q 2594 3103 2138 3103 
Q 1681 3103 1420 2742 
Q 1159 2381 1159 1747 
Q 1159 1113 1420 752 
Q 1681 391 2138 391 
Q 2594 391 2855 752 
Q 3116 1113 3116 1747 
z
M 1159 2969 
Q 1341 3281 1617 3432 
Q 1894 3584 2278 3584 
Q 2916 3584 3314 3078 
Q 3713 2572 3713 1747 
Q 3713 922 3314 415 
Q 2916 -91 2278 -91 
Q 1894 -91 1617 61 
Q 1341 213 1159 525 
L 1159 0 
L 581 0 
L 581 4863 
L 1159 4863 
L 1159 2969 
z
" transform="scale(0.015625)"/>
       </defs>
       <use xlink:href="#DejaVuSans-46"/>
       <use xlink:href="#DejaVuSans-65" x="52.019531"/>
       <use xlink:href="#DejaVuSans-62" x="113.542969"/>
      </g>
     </g>
    </g>
    <g id="xtick_3">
     <g id="line2d_3">
      <g>
       <use xlink:href="#m6c7f232dcd" x="138.836043" y="327.718125" style="stroke: #000000; stroke-width: 0.8"/>
      </g>
     </g>
     <g id="text_3">
      <!-- Mar -->
      <g transform="translate(129.402449 342.316562)scale(0.1 -0.1)">
       <defs>
        <path id="DejaVuSans-4d" d="M 628 4666 
L 1569 4666 
L 2759 1491 
L 3956 4666 
L 4897 4666 
L 4897 0 
L 4281 0 
L 4281 4097 
L 3078 897 
L 2444 897 
L 1241 4097 
L 1241 0 
L 628 0 
L 628 4666 
z
" transform="scale(0.015625)"/>
        <path id="DejaVuSans-72" d="M 2631 2963 
Q 2534 3019 2420 3045 
Q 2306 3072 2169 3072 
Q 1681 3072 1420 2755 
Q 1159 2438 1159 1844 
L 1159 0 
L 581 0 
L 581 3500 
L 1159 3500 
L 1159 2956 
Q 1341 3275 1631 3429 
Q 1922 3584 2338 3584 
Q 2397 3584 2469 3576 
Q 2541 3569 2628 3553 
L 2631 2963 
z
" transform="scale(0.015625)"/>
       </defs>
       <use xlink:href="#DejaVuSans-4d"/>
       <use xlink:href="#DejaVuSans-61" x="86.279297"/>
       <use xlink:href="#DejaVuSans-72" x="147.558594"/>
      </g>
     </g>
    </g>
    <g id="xtick_4">
     <g id="line2d_4">
      <g>
       <use xlink:href="#m6c7f232dcd" x="173.422553" y="327.718125" style="stroke: #000000; stroke-width: 0.8"/>
      </g>
     </g>
     <g id="text_4">
      <!-- Apr -->
      <g transform="translate(164.772553 342.316562)scale(0.1 -0.1)">
       <defs>
        <path id="DejaVuSans-41" d="M 2188 4044 
L 1331 1722 
L 3047 1722 
L 2188 4044 
z
M 1831 4666 
L 2547 4666 
L 4325 0 
L 3669 0 
L 3244 1197 
L 1141 1197 
L 716 0 
L 50 0 
L 1831 4666 
z
" transform="scale(0.015625)"/>
        <path id="DejaVuSans-70" d="M 1159 525 
L 1159 -1331 
L 581 -1331 
L 581 3500 
L 1159 3500 
L 1159 2969 
Q 1341 3281 1617 3432 
Q 1894 3584 2278 3584 
Q 2916 3584 3314 3078 
Q 3713 2572 3713 1747 
Q 3713 922 3314 415 
Q 2916 -91 2278 -91 
Q 1894 -91 1617 61 
Q 1341 213 1159 525 
z
M 3116 1747 
Q 3116 2381 2855 2742 
Q 2594 3103 2138 3103 
Q 1681 3103 1420 2742 
Q 1159 2381 1159 1747 
Q 1159 1113 1420 752 
Q 1681 391 2138 391 
Q 2594 391 2855 752 
Q 3116 1113 3116 1747 
z
" transform="scale(0.015625)"/>
       </defs>
       <use xlink:href="#DejaVuSans-41"/>
       <use xlink:href="#DejaVuSans-70" x="68.408203"/>
       <use xlink:href="#DejaVuSans-72" x="131.884766"/>
      </g>
     </g>
    </g>
    <g id="xtick_5">
     <g id="line2d_5">
      <g>
       <use xlink:href="#m6c7f232dcd" x="208.009063" y="327.718125" style="stroke: #000000; stroke-width: 0.8"/>
      </g>
     </g>
     <g id="text_5">
      <!-- May -->
      <g transform="translate(197.671563 342.316562)scale(0.1 -0.1)">
       <defs>
        <path id="DejaVuSans-79" d="M 2059 -325 
Q 1816 -950 1584 -1140 
Q 1353 -1331 966 -1331 
L 506 -1331 
L 506 -850 
L 844 -850 
Q 1081 -850 1212 -737 
Q 1344 -625 1503 -206 
L 1606 56 
L 191 3500 
L 800 3500 
L 1894 763 
L 2988 3500 
L 3597 3500 
L 2059 -325 
z
" transform="scale(0.015625)"/>
       </defs>
       <use xlink:href="#DejaVuSans-4d"/>
       <use xlink:href="#DejaVuSans-61" x="86.279297"/>
       <use xlink:href="#DejaVuSans-79" x="147.558594"/>
      </g>
     </g>
    </g>
    <g id="xtick_6">
     <g id="line2d_6">
      <g>
       <use xlink:href="#m6c7f232dcd" x="242.595574" y="327.718125" style="stroke: #000000; stroke-width: 0.8"/>
      </g>
     </g>
     <g id="text_6">
      <!-- Jun -->
      <g transform="translate(234.783074 342.316562)scale(0.1 -0.1)">
       <defs>
        <path id="DejaVuSans-75" d="M 544 1381 
L 544 3500 
L 1119 3500 
L 1119 1403 
Q 1119 906 1312 657 
Q 1506 409 1894 409 
Q 2359 409 2629 706 
Q 2900 1003 2900 1516 
L 2900 3500 
L 3475 3500 
L 3475 0 
L 2900 0 
L 2900 538 
Q 2691 219 2414 64 
Q 2138 -91 1772 -91 
Q 1169 -91 856 284 
Q 544 659 544 1381 
z
M 1991 3584 
L 1991 3584 
z
" transform="scale(0.015625)"/>
       </defs>
       <use xlink:href="#DejaVuSans-4a"/>
       <use xlink:href="#DejaVuSans-75" x="29.492188"/>
       <use xlink:href="#DejaVuSans-6e" x="92.871094"/>
      </g>
     </g>
    </g>
    <g id="xtick_7">
     <g id="line2d_7">
      <g>
       <use xlink:href="#m6c7f232dcd" x="277.182084" y="327.718125" style="stroke: #000000; stroke-width: 0.8"/>
      </g>
     </g>
     <g id="text_7">
      <!-- Jul -->
      <g transform="translate(271.149271 342.316562)scale(0.1 -0.1)">
       <defs>
        <path id="DejaVuSans-6c" d="M 603 4863 
L 1178 4863 
L 1178 0 
L 603 0 
L 603 4863 
z
" transform="scale(0.015625)"/>
       </defs>
       <use xlink:href="#DejaVuSans-4a"/>
       <use xlink:href="#DejaVuSans-75" x="29.492188"/>
       <use xlink:href="#DejaVuSans-6c" x="92.871094"/>
      </g>
     </g>
    </g>
    <g id="xtick_8">
     <g id="line2d_8">
      <g>
       <use xlink:href="#m6c7f232dcd" x="311.768594" y="327.718125" style="stroke: #000000; stroke-width: 0.8"/>
      </g>
     </g>
     <g id="text_8">
      <!-- Aug -->
      <g transform="translate(302.005313 342.316562)scale(0.1 -0.1)">
       <defs>
        <path id="DejaVuSans-67" d="M 2906 1791 
Q 2906 2416 2648 2759 
Q 2391 3103 1925 3103 
Q 1463 3103 1205 2759 
Q 947 2416 947 1791 
Q 947 1169 1205 825 
Q 1463 481 1925 481 
Q 2391 481 2648 825 
Q 2906 1169 2906 1791 
z
M 3481 434 
Q 3481 -459 3084 -895 
Q 2688 -1331 1869 -1331 
Q 1566 -1331 1297 -1286 
Q 1028 -1241 775 -1147 
L 775 -588 
Q 1028 -725 1275 -790 
Q 1522 -856 1778 -856 
Q 2344 -856 2625 -561 
Q 2906 -266 2906 331 
L 2906 616 
Q 2728 306 2450 153 
Q 2172 0 1784 0 
Q 1141 0 747 490 
Q 353 981 353 1791 
Q 353 2603 747 3093 
Q 1141 3584 1784 3584 
Q 2172 3584 2450 3431 
Q 2728 3278 2906 2969 
L 2906 3500 
L 3481 3500 
L 3481 434 
z
" transform="scale(0.015625)"/>
       </defs>
       <use xlink:href="#DejaVuSans-41"/>
       <use xlink:href="#DejaVuSans-75" x="68.408203"/>
       <use xlink:href="#DejaVuSans-67" x="131.787109"/>
      </g>
     </g>
    </g>
    <g id="xtick_9">
     <g id="line2d_9">
      <g>
       <use xlink:href="#m6c7f232dcd" x="346.355104" y="327.718125" style="stroke: #000000; stroke-width: 0.8"/>
      </g>
     </g>
     <g id="text_9">
      <!-- Sep -->
      <g transform="translate(336.930104 342.316562)scale(0.1 -0.1)">
       <defs>
        <path id="DejaVuSans-53" d="M 3425 4513 
L 3425 3897 
Q 3066 4069 2747 4153 
Q 2428 4238 2131 4238 
Q 1616 4238 1336 4038 
Q 1056 3838 1056 3469 
Q 1056 3159 1242 3001 
Q 1428 2844 1947 2747 
L 2328 2669 
Q 3034 2534 3370 2195 
Q 3706 1856 3706 1288 
Q 3706 609 3251 259 
Q 2797 -91 1919 -91 
Q 1588 -91 1214 -16 
Q 841 59 441 206 
L 441 856 
Q 825 641 1194 531 
Q 1563 422 1919 422 
Q 2459 422 2753 634 
Q 3047 847 3047 1241 
Q 3047 1584 2836 1778 
Q 2625 1972 2144 2069 
L 1759 2144 
Q 1053 2284 737 2584 
Q 422 2884 422 3419 
Q 422 4038 858 4394 
Q 1294 4750 2059 4750 
Q 2388 4750 2728 4690 
Q 3069 4631 3425 4513 
z
" transform="scale(0.015625)"/>
       </defs>
       <use xlink:href="#DejaVuSans-53"/>
       <use xlink:href="#DejaVuSans-65" x="63.476562"/>
       <use xlink:href="#DejaVuSans-70" x="125"/>
      </g>
     </g>
    </g>
    <g id="xtick_10">
     <g id="line2d_10">
      <g>
       <use xlink:href="#m6c7f232dcd" x="380.941615" y="327.718125" style="stroke: #000000; stroke-width: 0.8"/>
      </g>
     </g>
     <g id="text_10">
      <!-- Oct -->
      <g transform="translate(372.296302 342.316562)scale(0.1 -0.1)">
       <defs>
        <path id="DejaVuSans-4f" d="M 2522 4238 
Q 1834 4238 1429 3725 
Q 1025 3213 1025 2328 
Q 1025 1447 1429 934 
Q 1834 422 2522 422 
Q 3209 422 3611 934 
Q 4013 1447 4013 2328 
Q 4013 3213 3611 3725 
Q 3209 4238 2522 4238 
z
M 2522 4750 
Q 3503 4750 4090 4092 
Q 4678 3434 4678 2328 
Q 4678 1225 4090 567 
Q 3503 -91 2522 -91 
Q 1538 -91 948 565 
Q 359 1222 359 2328 
Q 359 3434 948 4092 
Q 1538 4750 2522 4750 
z
" transform="scale(0.015625)"/>
        <path id="DejaVuSans-63" d="M 3122 3366 
L 3122 2828 
Q 2878 2963 2633 3030 
Q 2388 3097 2138 3097 
Q 1578 3097 1268 2742 
Q 959 2388 959 1747 
Q 959 1106 1268 751 
Q 1578 397 2138 397 
Q 2388 397 2633 464 
Q 2878 531 3122 666 
L 3122 134 
Q 2881 22 2623 -34 
Q 2366 -91 2075 -91 
Q 1284 -91 818 406 
Q 353 903 353 1747 
Q 353 2603 823 3093 
Q 1294 3584 2113 3584 
Q 2378 3584 2631 3529 
Q 2884 3475 3122 3366 
z
" transform="scale(0.015625)"/>
        <path id="DejaVuSans-74" d="M 1172 4494 
L 1172 3500 
L 2356 3500 
L 2356 3053 
L 1172 3053 
L 1172 1153 
Q 1172 725 1289 603 
Q 1406 481 1766 481 
L 2356 481 
L 2356 0 
L 1766 0 
Q 1100 0 847 248 
Q 594 497 594 1153 
L 594 3053 
L 172 3053 
L 172 3500 
L 594 3500 
L 594 4494 
L 1172 4494 
z
" transform="scale(0.015625)"/>
       </defs>
       <use xlink:href="#DejaVuSans-4f"/>
       <use xlink:href="#DejaVuSans-63" x="78.710938"/>
       <use xlink:href="#DejaVuSans-74" x="133.691406"/>
      </g>
     </g>
    </g>
    <g id="xtick_11">
     <g id="line2d_11">
      <g>
       <use xlink:href="#m6c7f232dcd" x="415.528125" y="327.718125" style="stroke: #000000; stroke-width: 0.8"/>
      </g>
     </g>
     <g id="text_11">
      <!-- Nov -->
      <g transform="translate(405.76875 342.316562)scale(0.1 -0.1)">
       <defs>
        <path id="DejaVuSans-4e" d="M 628 4666 
L 1478 4666 
L 3547 763 
L 3547 4666 
L 4159 4666 
L 4159 0 
L 3309 0 
L 1241 3903 
L 1241 0 
L 628 0 
L 628 4666 
z
" transform="scale(0.015625)"/>
        <path id="DejaVuSans-6f" d="M 1959 3097 
Q 1497 3097 1228 2736 
Q 959 2375 959 1747 
Q 959 1119 1226 758 
Q 1494 397 1959 397 
Q 2419 397 2687 759 
Q 2956 1122 2956 1747 
Q 2956 2369 2687 2733 
Q 2419 3097 1959 3097 
z
M 1959 3584 
Q 2709 3584 3137 3096 
Q 3566 2609 3566 1747 
Q 3566 888 3137 398 
Q 2709 -91 1959 -91 
Q 1206 -91 779 398 
Q 353 888 353 1747 
Q 353 2609 779 3096 
Q 1206 3584 1959 3584 
z
" transform="scale(0.015625)"/>
        <path id="DejaVuSans-76" d="M 191 3500 
L 800 3500 
L 1894 563 
L 2988 3500 
L 3597 3500 
L 2284 0 
L 1503 0 
L 191 3500 
z
" transform="scale(0.015625)"/>
       </defs>
       <use xlink:href="#DejaVuSans-4e"/>
       <use xlink:href="#DejaVuSans-6f" x="74.804688"/>
       <use xlink:href="#DejaVuSans-76" x="135.986328"/>
      </g>
     </g>
    </g>
    <g id="xtick_12">
     <g id="line2d_12">
      <g>
       <use xlink:href="#m6c7f232dcd" x="450.114635" y="327.718125" style="stroke: #000000; stroke-width: 0.8"/>
      </g>
     </g>
     <g id="text_12">
      <!-- Dec -->
      <g transform="translate(440.438854 342.316562)scale(0.1 -0.1)">
       <defs>
        <path id="DejaVuSans-44" d="M 1259 4147 
L 1259 519 
L 2022 519 
Q 2988 519 3436 956 
Q 3884 1394 3884 2338 
Q 3884 3275 3436 3711 
Q 2988 4147 2022 4147 
L 1259 4147 
z
M 628 4666 
L 1925 4666 
Q 3281 4666 3915 4102 
Q 4550 3538 4550 2338 
Q 4550 1131 3912 565 
Q 3275 0 1925 0 
L 628 0 
L 628 4666 
z
" transform="scale(0.015625)"/>
       </defs>
       <use xlink:href="#DejaVuSans-44"/>
       <use xlink:href="#DejaVuSans-65" x="77.001953"/>
       <use xlink:href="#DejaVuSans-63" x="138.525391"/>
      </g>
     </g>
    </g>
   </g>
   <g id="matplotlib.axis_2">
    <g id="ytick_1">
     <g id="line2d_13">
      <defs>
       <path id="m21d99c193b" d="M 0 0 
L -3.5 0 
" style="stroke: #000000; stroke-width: 0.8"/>
      </defs>
      <g>
       <use xlink:href="#m21d99c193b" x="46.965625" y="327.718125" style="stroke: #000000; stroke-width: 0.8"/>
      </g>
     </g>
     <g id="text_13">
      <!-- 0 -->
      <g transform="translate(33.603125 331.517344)scale(0.1 -0.1)">
       <defs>
        <path id="DejaVuSans-30" d="M 2034 4250 
Q 1547 4250 1301 3770 
Q 1056 3291 1056 2328 
Q 1056 1369 1301 889 
Q 1547 409 2034 409 
Q 2525 409 2770 889 
Q 3016 1369 3016 2328 
Q 3016 3291 2770 3770 
Q 2525 4250 2034 4250 
z
M 2034 4750 
Q 2819 4750 3233 4129 
Q 3647 3509 3647 2328 
Q 3647 1150 3233 529 
Q 2819 -91 2034 -91 
Q 1250 -91 836 529 
Q 422 1150 422 2328 
Q 422 3509 836 4129 
Q 1250 4750 2034 4750 
z
" transform="scale(0.015625)"/>
       </defs>
       <use xlink:href="#DejaVuSans-30"/>
      </g>
     </g>
    </g>
    <g id="ytick_2">
     <g id="line2d_14">
      <g>
       <use xlink:href="#m21d99c193b" x="46.965625" y="288.413106" style="stroke: #000000; stroke-width: 0.8"/>
      </g>
     </g>
     <g id="text_14">
      <!-- 25 -->
      <g transform="translate(27.240625 292.212324)scale(0.1 -0.1)">
       <defs>
        <path id="DejaVuSans-32" d="M 1228 531 
L 3431 531 
L 3431 0 
L 469 0 
L 469 531 
Q 828 903 1448 1529 
Q 2069 2156 2228 2338 
Q 2531 2678 2651 2914 
Q 2772 3150 2772 3378 
Q 2772 3750 2511 3984 
Q 2250 4219 1831 4219 
Q 1534 4219 1204 4116 
Q 875 4013 500 3803 
L 500 4441 
Q 881 4594 1212 4672 
Q 1544 4750 1819 4750 
Q 2544 4750 2975 4387 
Q 3406 4025 3406 3419 
Q 3406 3131 3298 2873 
Q 3191 2616 2906 2266 
Q 2828 2175 2409 1742 
Q 1991 1309 1228 531 
z
" transform="scale(0.015625)"/>
        <path id="DejaVuSans-35" d="M 691 4666 
L 3169 4666 
L 3169 4134 
L 1269 4134 
L 1269 2991 
Q 1406 3038 1543 3061 
Q 1681 3084 1819 3084 
Q 2600 3084 3056 2656 
Q 3513 2228 3513 1497 
Q 3513 744 3044 326 
Q 2575 -91 1722 -91 
Q 1428 -91 1123 -41 
Q 819 9 494 109 
L 494 744 
Q 775 591 1075 516 
Q 1375 441 1709 441 
Q 2250 441 2565 725 
Q 2881 1009 2881 1497 
Q 2881 1984 2565 2268 
Q 2250 2553 1709 2553 
Q 1456 2553 1204 2497 
Q 953 2441 691 2322 
L 691 4666 
z
" transform="scale(0.015625)"/>
       </defs>
       <use xlink:href="#DejaVuSans-32"/>
       <use xlink:href="#DejaVuSans-35" x="63.623047"/>
      </g>
     </g>
    </g>
    <g id="ytick_3">
     <g id="line2d_15">
      <g>
       <use xlink:href="#m21d99c193b" x="46.965625" y="249.108086" style="stroke: #000000; stroke-width: 0.8"/>
      </g>
     </g>
     <g id="text_15">
      <!-- 50 -->
      <g transform="translate(27.240625 252.907305)scale(0.1 -0.1)">
       <use xlink:href="#DejaVuSans-35"/>
       <use xlink:href="#DejaVuSans-30" x="63.623047"/>
      </g>
     </g>
    </g>
    <g id="ytick_4">
     <g id="line2d_16">
      <g>
       <use xlink:href="#m21d99c193b" x="46.965625" y="209.803067" style="stroke: #000000; stroke-width: 0.8"/>
      </g>
     </g>
     <g id="text_16">
      <!-- 75 -->
      <g transform="translate(27.240625 213.602286)scale(0.1 -0.1)">
       <defs>
        <path id="DejaVuSans-37" d="M 525 4666 
L 3525 4666 
L 3525 4397 
L 1831 0 
L 1172 0 
L 2766 4134 
L 525 4134 
L 525 4666 
z
" transform="scale(0.015625)"/>
       </defs>
       <use xlink:href="#DejaVuSans-37"/>
       <use xlink:href="#DejaVuSans-35" x="63.623047"/>
      </g>
     </g>
    </g>
    <g id="ytick_5">
     <g id="line2d_17">
      <g>
       <use xlink:href="#m21d99c193b" x="46.965625" y="170.498048" style="stroke: #000000; stroke-width: 0.8"/>
      </g>
     </g>
     <g id="text_17">
      <!-- 100 -->
      <g transform="translate(20.878125 174.297267)scale(0.1 -0.1)">
       <defs>
        <path id="DejaVuSans-31" d="M 794 531 
L 1825 531 
L 1825 4091 
L 703 3866 
L 703 4441 
L 1819 4666 
L 2450 4666 
L 2450 531 
L 3481 531 
L 3481 0 
L 794 0 
L 794 531 
z
" transform="scale(0.015625)"/>
       </defs>
       <use xlink:href="#DejaVuSans-31"/>
       <use xlink:href="#DejaVuSans-30" x="63.623047"/>
       <use xlink:href="#DejaVuSans-30" x="127.246094"/>
      </g>
     </g>
    </g>
    <g id="ytick_6">
     <g id="line2d_18">
      <g>
       <use xlink:href="#m21d99c193b" x="46.965625" y="131.193028" style="stroke: #000000; stroke-width: 0.8"/>
      </g>
     </g>
     <g id="text_18">
      <!-- 125 -->
      <g transform="translate(20.878125 134.992247)scale(0.1 -0.1)">
       <use xlink:href="#DejaVuSans-31"/>
       <use xlink:href="#DejaVuSans-32" x="63.623047"/>
       <use xlink:href="#DejaVuSans-35" x="127.246094"/>
      </g>
     </g>
    </g>
    <g id="ytick_7">
     <g id="line2d_19">
      <g>
       <use xlink:href="#m21d99c193b" x="46.965625" y="91.888009" style="stroke: #000000; stroke-width: 0.8"/>
      </g>
     </g>
     <g id="text_19">
      <!-- 150 -->
      <g transform="translate(20.878125 95.687228)scale(0.1 -0.1)">
       <use xlink:href="#DejaVuSans-31"/>
       <use xlink:href="#DejaVuSans-35" x="63.623047"/>
       <use xlink:href="#DejaVuSans-30" x="127.246094"/>
      </g>
     </g>
    </g>
    <g id="ytick_8">
     <g id="line2d_20">
      <g>
       <use xlink:href="#m21d99c193b" x="46.965625" y="52.58299" style="stroke: #000000; stroke-width: 0.8"/>
      </g>
     </g>
     <g id="text_20">
      <!-- 175 -->
      <g transform="translate(20.878125 56.382209)scale(0.1 -0.1)">
       <use xlink:href="#DejaVuSans-31"/>
       <use xlink:href="#DejaVuSans-37" x="63.623047"/>
       <use xlink:href="#DejaVuSans-35" x="127.246094"/>
      </g>
     </g>
    </g>
    <g id="text_21">
     <!-- Hours -->
     <g transform="translate(14.798438 189.666562)rotate(-90)scale(0.1 -0.1)">
      <defs>
       <path id="DejaVuSans-48" d="M 628 4666 
L 1259 4666 
L 1259 2753 
L 3553 2753 
L 3553 4666 
L 4184 4666 
L 4184 0 
L 3553 0 
L 3553 2222 
L 1259 2222 
L 1259 0 
L 628 0 
L 628 4666 
z
" transform="scale(0.015625)"/>
       <path id="DejaVuSans-73" d="M 2834 3397 
L 2834 2853 
Q 2591 2978 2328 3040 
Q 2066 3103 1784 3103 
Q 1356 3103 1142 2972 
Q 928 2841 928 2578 
Q 928 2378 1081 2264 
Q 1234 2150 1697 2047 
L 1894 2003 
Q 2506 1872 2764 1633 
Q 3022 1394 3022 966 
Q 3022 478 2636 193 
Q 2250 -91 1575 -91 
Q 1294 -91 989 -36 
Q 684 19 347 128 
L 347 722 
Q 666 556 975 473 
Q 1284 391 1588 391 
Q 1994 391 2212 530 
Q 2431 669 2431 922 
Q 2431 1156 2273 1281 
Q 2116 1406 1581 1522 
L 1381 1569 
Q 847 1681 609 1914 
Q 372 2147 372 2553 
Q 372 3047 722 3315 
Q 1072 3584 1716 3584 
Q 2034 3584 2315 3537 
Q 2597 3491 2834 3397 
z
" transform="scale(0.015625)"/>
      </defs>
      <use xlink:href="#DejaVuSans-48"/>
      <use xlink:href="#DejaVuSans-6f" x="75.195312"/>
      <use xlink:href="#DejaVuSans-75" x="136.376953"/>
      <use xlink:href="#DejaVuSans-72" x="199.755859"/>
      <use xlink:href="#DejaVuSans-73" x="240.869141"/>
     </g>
    </g>
   </g>
   <g id="patch_63">
    <path d="M 46.965625 327.718125 
L 46.965625 22.318125 
" style="fill: none; stroke: #000000; stroke-width: 0.8; stroke-linejoin: miter; stroke-linecap: square"/>
   </g>
   <g id="patch_64">
    <path d="M 489.240625 327.718125 
L 489.240625 22.318125 
" style="fill: none; stroke: #000000; stroke-width: 0.8; stroke-linejoin: miter; stroke-linecap: square"/>
   </g>
   <g id="patch_65">
    <path d="M 46.965625 327.718125 
L 489.240625 327.718125 
" style="fill: none; stroke: #000000; stroke-width: 0.8; stroke-linejoin: miter; stroke-linecap: square"/>
   </g>
   <g id="patch_66">
    <path d="M 46.965625 22.318125 
L 489.240625 22.318125 
" style="fill: none; stroke: #000000; stroke-width: 0.8; stroke-linejoin: miter; stroke-linecap: square"/>
   </g>
   <g id="text_22">
    <!-- Total hours logged per Month -->
    <g transform="translate(180.365312 16.318125)scale(0.12 -0.12)">
     <defs>
      <path id="DejaVuSans-54" d="M -19 4666 
L 3928 4666 
L 3928 4134 
L 2272 4134 
L 2272 0 
L 1638 0 
L 1638 4134 
L -19 4134 
L -19 4666 
z
" transform="scale(0.015625)"/>
      <path id="DejaVuSans-20" transform="scale(0.015625)"/>
      <path id="DejaVuSans-68" d="M 3513 2113 
L 3513 0 
L 2938 0 
L 2938 2094 
Q 2938 2591 2744 2837 
Q 2550 3084 2163 3084 
Q 1697 3084 1428 2787 
Q 1159 2491 1159 1978 
L 1159 0 
L 581 0 
L 581 4863 
L 1159 4863 
L 1159 2956 
Q 1366 3272 1645 3428 
Q 1925 3584 2291 3584 
Q 2894 3584 3203 3211 
Q 3513 2838 3513 2113 
z
" transform="scale(0.015625)"/>
      <path id="DejaVuSans-64" d="M 2906 2969 
L 2906 4863 
L 3481 4863 
L 3481 0 
L 2906 0 
L 2906 525 
Q 2725 213 2448 61 
Q 2172 -91 1784 -91 
Q 1150 -91 751 415 
Q 353 922 353 1747 
Q 353 2572 751 3078 
Q 1150 3584 1784 3584 
Q 2172 3584 2448 3432 
Q 2725 3281 2906 2969 
z
M 947 1747 
Q 947 1113 1208 752 
Q 1469 391 1925 391 
Q 2381 391 2643 752 
Q 2906 1113 2906 1747 
Q 2906 2381 2643 2742 
Q 2381 3103 1925 3103 
Q 1469 3103 1208 2742 
Q 947 2381 947 1747 
z
" transform="scale(0.015625)"/>
     </defs>
     <use xlink:href="#DejaVuSans-54"/>
     <use xlink:href="#DejaVuSans-6f" x="44.083984"/>
     <use xlink:href="#DejaVuSans-74" x="105.265625"/>
     <use xlink:href="#DejaVuSans-61" x="144.474609"/>
     <use xlink:href="#DejaVuSans-6c" x="205.753906"/>
     <use xlink:href="#DejaVuSans-20" x="233.537109"/>
     <use xlink:href="#DejaVuSans-68" x="265.324219"/>
     <use xlink:href="#DejaVuSans-6f" x="328.703125"/>
     <use xlink:href="#DejaVuSans-75" x="389.884766"/>
     <use xlink:href="#DejaVuSans-72" x="453.263672"/>
     <use xlink:href="#DejaVuSans-73" x="494.376953"/>
     <use xlink:href="#DejaVuSans-20" x="546.476562"/>
     <use xlink:href="#DejaVuSans-6c" x="578.263672"/>
     <use xlink:href="#DejaVuSans-6f" x="606.046875"/>
     <use xlink:href="#DejaVuSans-67" x="667.228516"/>
     <use xlink:href="#DejaVuSans-67" x="730.705078"/>
     <use xlink:href="#DejaVuSans-65" x="794.181641"/>
     <use xlink:href="#DejaVuSans-64" x="855.705078"/>
     <use xlink:href="#DejaVuSans-20" x="919.181641"/>
     <use xlink:href="#DejaVuSans-70" x="950.96875"/>
     <use xlink:href="#DejaVuSans-65" x="1014.445312"/>
     <use xlink:href="#DejaVuSans-72" x="1075.96875"/>
     <use xlink:href="#DejaVuSans-20" x="1117.082031"/>
     <use xlink:href="#DejaVuSans-4d" x="1148.869141"/>
     <use xlink:href="#DejaVuSans-6f" x="1235.148438"/>
     <use xlink:href="#DejaVuSans-6e" x="1296.330078"/>
     <use xlink:href="#DejaVuSans-74" x="1359.708984"/>
     <use xlink:href="#DejaVuSans-68" x="1398.917969"/>
    </g>
   </g>
   <g id="legend_1">
    <g id="patch_67">
     <path d="M 424.790625 103.70875 
L 482.240625 103.70875 
Q 484.240625 103.70875 484.240625 101.70875 
L 484.240625 29.318125 
Q 484.240625 27.318125 482.240625 27.318125 
L 424.790625 27.318125 
Q 422.790625 27.318125 422.790625 29.318125 
L 422.790625 101.70875 
Q 422.790625 103.70875 424.790625 103.70875 
z
" style="fill: #ffffff; opacity: 0.8; stroke: #cccccc; stroke-linejoin: miter"/>
    </g>
    <g id="patch_68">
     <path d="M 426.790625 38.916562 
L 446.790625 38.916562 
L 446.790625 31.916562 
L 426.790625 31.916562 
z
" style="fill: #77cae0"/>
    </g>
    <g id="text_23">
     <!-- 2018 -->
     <g transform="translate(454.790625 38.916562)scale(0.1 -0.1)">
      <defs>
       <path id="DejaVuSans-38" d="M 2034 2216 
Q 1584 2216 1326 1975 
Q 1069 1734 1069 1313 
Q 1069 891 1326 650 
Q 1584 409 2034 409 
Q 2484 409 2743 651 
Q 3003 894 3003 1313 
Q 3003 1734 2745 1975 
Q 2488 2216 2034 2216 
z
M 1403 2484 
Q 997 2584 770 2862 
Q 544 3141 544 3541 
Q 544 4100 942 4425 
Q 1341 4750 2034 4750 
Q 2731 4750 3128 4425 
Q 3525 4100 3525 3541 
Q 3525 3141 3298 2862 
Q 3072 2584 2669 2484 
Q 3125 2378 3379 2068 
Q 3634 1759 3634 1313 
Q 3634 634 3220 271 
Q 2806 -91 2034 -91 
Q 1263 -91 848 271 
Q 434 634 434 1313 
Q 434 1759 690 2068 
Q 947 2378 1403 2484 
z
M 1172 3481 
Q 1172 3119 1398 2916 
Q 1625 2713 2034 2713 
Q 2441 2713 2670 2916 
Q 2900 3119 2900 3481 
Q 2900 3844 2670 4047 
Q 2441 4250 2034 4250 
Q 1625 4250 1398 4047 
Q 1172 3844 1172 3481 
z
" transform="scale(0.015625)"/>
      </defs>
      <use xlink:href="#DejaVuSans-32"/>
      <use xlink:href="#DejaVuSans-30" x="63.623047"/>
      <use xlink:href="#DejaVuSans-31" x="127.246094"/>
      <use xlink:href="#DejaVuSans-38" x="190.869141"/>
     </g>
    </g>
    <g id="patch_69">
     <path d="M 426.790625 53.594687 
L 446.790625 53.594687 
L 446.790625 46.594687 
L 426.790625 46.594687 
z
" style="fill: #5ab1cc"/>
    </g>
    <g id="text_24">
     <!-- 2019 -->
     <g transform="translate(454.790625 53.594687)scale(0.1 -0.1)">
      <defs>
       <path id="DejaVuSans-39" d="M 703 97 
L 703 672 
Q 941 559 1184 500 
Q 1428 441 1663 441 
Q 2288 441 2617 861 
Q 2947 1281 2994 2138 
Q 2813 1869 2534 1725 
Q 2256 1581 1919 1581 
Q 1219 1581 811 2004 
Q 403 2428 403 3163 
Q 403 3881 828 4315 
Q 1253 4750 1959 4750 
Q 2769 4750 3195 4129 
Q 3622 3509 3622 2328 
Q 3622 1225 3098 567 
Q 2575 -91 1691 -91 
Q 1453 -91 1209 -44 
Q 966 3 703 97 
z
M 1959 2075 
Q 2384 2075 2632 2365 
Q 2881 2656 2881 3163 
Q 2881 3666 2632 3958 
Q 2384 4250 1959 4250 
Q 1534 4250 1286 3958 
Q 1038 3666 1038 3163 
Q 1038 2656 1286 2365 
Q 1534 2075 1959 2075 
z
" transform="scale(0.015625)"/>
      </defs>
      <use xlink:href="#DejaVuSans-32"/>
      <use xlink:href="#DejaVuSans-30" x="63.623047"/>
      <use xlink:href="#DejaVuSans-31" x="127.246094"/>
      <use xlink:href="#DejaVuSans-39" x="190.869141"/>
     </g>
    </g>
    <g id="patch_70">
     <path d="M 426.790625 68.272812 
L 446.790625 68.272812 
L 446.790625 61.272812 
L 426.790625 61.272812 
z
" style="fill: #3e9888"/>
    </g>
    <g id="text_25">
     <!-- 2020 -->
     <g transform="translate(454.790625 68.272812)scale(0.1 -0.1)">
      <use xlink:href="#DejaVuSans-32"/>
      <use xlink:href="#DejaVuSans-30" x="63.623047"/>
      <use xlink:href="#DejaVuSans-32" x="127.246094"/>
      <use xlink:href="#DejaVuSans-30" x="190.869141"/>
     </g>
    </g>
    <g id="patch_71">
     <path d="M 426.790625 82.950937 
L 446.790625 82.950937 
L 446.790625 75.950937 
L 426.790625 75.950937 
z
" style="fill: #217ea3"/>
    </g>
    <g id="text_26">
     <!-- 2021 -->
     <g transform="translate(454.790625 82.950937)scale(0.1 -0.1)">
      <use xlink:href="#DejaVuSans-32"/>
      <use xlink:href="#DejaVuSans-30" x="63.623047"/>
      <use xlink:href="#DejaVuSans-32" x="127.246094"/>
      <use xlink:href="#DejaVuSans-31" x="190.869141"/>
     </g>
    </g>
    <g id="patch_72">
     <path d="M 426.790625 97.629062 
L 446.790625 97.629062 
L 446.790625 90.629062 
L 426.790625 90.629062 
z
" style="fill: #f3822a"/>
    </g>
    <g id="text_27">
     <!-- 2022 -->
     <g transform="translate(454.790625 97.629062)scale(0.1 -0.1)">
      <use xlink:href="#DejaVuSans-32"/>
      <use xlink:href="#DejaVuSans-30" x="63.623047"/>
      <use xlink:href="#DejaVuSans-32" x="127.246094"/>
      <use xlink:href="#DejaVuSans-32" x="190.869141"/>
     </g>
    </g>
   </g>
  </g>
 </g>
 <defs>
  <clipPath id="p92e4e95df3">
   <rect x="46.965625" y="22.318125" width="442.275" height="305.4"/>
  </clipPath>
 </defs>
</svg>
